<svg xmlns="http://www.w3.org/2000/svg" version="1.1" xmlns:xlink="http://www.w3.org/1999/xlink" xmlns:svgjs="http://svgjs.dev/svgjs" viewBox="0 0 800 800"><circle r="9" cx="60" cy="372" fill="hsl(69, 75%, 70%)" opacity="0.34"></circle><circle r="9" cx="348" cy="257" fill="hsl(282, 75%, 70%)" opacity="0.20"></circle><circle r="7" cx="786" cy="231" fill="hsl(180, 75%, 70%)" opacity="0.19"></circle><circle r="8.5" cx="433" cy="449" fill="hsl(201, 75%, 70%)" opacity="0.76"></circle><circle r="13" cx="700" cy="777" fill="hsl(287, 75%, 70%)" opacity="0.15"></circle><circle r="9" cx="55" cy="261" fill="hsl(69, 75%, 70%)" opacity="0.52"></circle><circle r="8" cx="572" cy="598" fill="hsl(263, 75%, 70%)" opacity="0.59"></circle><circle r="17" cx="651" cy="276" fill="hsl(307, 75%, 70%)" opacity="0.22"></circle><circle r="5" cx="14" cy="435" fill="hsl(54, 75%, 70%)" opacity="0.12"></circle><circle r="11.5" cx="456" cy="185" fill="hsl(197, 75%, 70%)" opacity="0.51"></circle><circle r="9.5" cx="781" cy="510" fill="hsl(180, 75%, 70%)" opacity="0.29"></circle><circle r="12" cx="473" cy="650" fill="hsl(190, 75%, 70%)" opacity="0.26"></circle><circle r="12.5" cx="587" cy="284" fill="hsl(275, 75%, 70%)" opacity="0.49"></circle><circle r="9.5" cx="425" cy="762" fill="hsl(210, 75%, 70%)" opacity="0.43"></circle><circle r="14.5" cx="189" cy="224" fill="hsl(266, 75%, 70%)" opacity="0.65"></circle><circle r="9.5" cx="421" cy="268" fill="hsl(210, 75%, 70%)" opacity="0.79"></circle><circle r="10" cx="636" cy="22" fill="hsl(209, 75%, 70%)" opacity="0.70"></circle><circle r="12" cx="215" cy="191" fill="hsl(297, 75%, 70%)" opacity="0.80"></circle><circle r="9.5" cx="557" cy="151" fill="hsl(258, 75%, 70%)" opacity="0.76"></circle><circle r="10.5" cx="283" cy="245" fill="hsl(323, 75%, 70%)" opacity="0.17"></circle><circle r="10" cx="72" cy="206" fill="hsl(80, 75%, 70%)" opacity="0.14"></circle><circle r="6" cx="43" cy="782" fill="hsl(61, 75%, 70%)" opacity="0.14"></circle><circle r="10.5" cx="750" cy="707" fill="hsl(232, 75%, 70%)" opacity="0.81"></circle><circle r="16.5" cx="314" cy="295" fill="hsl(304, 75%, 70%)" opacity="0.16"></circle><circle r="8.5" cx="786" cy="128" fill="hsl(254, 75%, 70%)" opacity="0.81"></circle><circle r="5" cx="135" cy="790" fill="hsl(165, 75%, 70%)" opacity="0.63"></circle><circle r="7" cx="171" cy="120" fill="hsl(109, 75%, 70%)" opacity="0.87"></circle><circle r="11.5" cx="237" cy="311" fill="hsl(308, 75%, 70%)" opacity="0.11"></circle><circle r="14.5" cx="287" cy="397" fill="hsl(323, 75%, 70%)" opacity="0.71"></circle><circle r="14.5" cx="286" cy="150" fill="hsl(287, 75%, 70%)" opacity="0.87"></circle><circle r="8" cx="132" cy="33" fill="hsl(46, 75%, 70%)" opacity="0.17"></circle><circle r="14.5" cx="382" cy="701" fill="hsl(245, 75%, 70%)" opacity="0.37"></circle><circle r="12.5" cx="658" cy="580" fill="hsl(307, 75%, 70%)" opacity="0.64"></circle><circle r="18.5" cx="647" cy="208" fill="hsl(308, 75%, 70%)" opacity="0.80"></circle><circle r="8.5" cx="267" cy="267" fill="hsl(324, 75%, 70%)" opacity="0.30"></circle><circle r="15" cx="260" cy="435" fill="hsl(322, 75%, 70%)" opacity="0.56"></circle><circle r="10.5" cx="327" cy="369" fill="hsl(294, 75%, 70%)" opacity="0.67"></circle><circle r="8" cx="699" cy="133" fill="hsl(336, 75%, 70%)" opacity="0.42"></circle><circle r="7.5" cx="90" cy="605" fill="hsl(109, 75%, 70%)" opacity="0.21"></circle><circle r="11" cx="272" cy="296" fill="hsl(324, 75%, 70%)" opacity="0.60"></circle><circle r="7" cx="79" cy="710" fill="hsl(93, 75%, 70%)" opacity="0.68"></circle><circle r="11.5" cx="630" cy="607" fill="hsl(307, 75%, 70%)" opacity="0.24"></circle><circle r="7.5" cx="191" cy="752" fill="hsl(266, 75%, 70%)" opacity="0.19"></circle><circle r="9.5" cx="482" cy="446" fill="hsl(192, 75%, 70%)" opacity="0.12"></circle><circle r="9.5" cx="519" cy="199" fill="hsl(213, 75%, 70%)" opacity="0.52"></circle><circle r="7" cx="124" cy="764" fill="hsl(145, 75%, 70%)" opacity="0.71"></circle><circle r="11.5" cx="364" cy="287" fill="hsl(257, 75%, 70%)" opacity="0.72"></circle><circle r="6" cx="97" cy="51" fill="hsl(32, 75%, 70%)" opacity="0.87"></circle><circle r="8" cx="784" cy="283" fill="hsl(180, 75%, 70%)" opacity="0.38"></circle><circle r="10" cx="473" cy="314" fill="hsl(190, 75%, 70%)" opacity="0.67"></circle><circle r="11.5" cx="434" cy="23" fill="hsl(194, 75%, 70%)" opacity="0.71"></circle><circle r="14.5" cx="657" cy="685" fill="hsl(307, 75%, 70%)" opacity="0.24"></circle><circle r="5.5" cx="780" cy="639" fill="hsl(180, 75%, 70%)" opacity="0.60"></circle><circle r="7" cx="436" cy="108" fill="hsl(209, 75%, 70%)" opacity="0.71"></circle><circle r="13.5" cx="553" cy="778" fill="hsl(250, 75%, 70%)" opacity="0.83"></circle><circle r="4.5" cx="12" cy="700" fill="hsl(53, 75%, 70%)" opacity="0.30"></circle><circle r="13" cx="168" cy="587" fill="hsl(228, 75%, 70%)" opacity="0.39"></circle><circle r="12.5" cx="285" cy="544" fill="hsl(323, 75%, 70%)" opacity="0.95"></circle><circle r="9.5" cx="130" cy="183" fill="hsl(146, 75%, 70%)" opacity="0.18"></circle><circle r="10" cx="295" cy="66" fill="hsl(239, 75%, 70%)" opacity="0.73"></circle><circle r="13.5" cx="622" cy="347" fill="hsl(302, 75%, 70%)" opacity="0.84"></circle><circle r="7.5" cx="160" cy="740" fill="hsl(207, 75%, 70%)" opacity="0.31"></circle><circle r="11" cx="460" cy="142" fill="hsl(202, 75%, 70%)" opacity="0.10"></circle><circle r="13" cx="185" cy="317" fill="hsl(248, 75%, 70%)" opacity="0.51"></circle><circle r="16" cx="572" cy="395" fill="hsl(263, 75%, 70%)" opacity="0.67"></circle><circle r="8" cx="529" cy="58" fill="hsl(170, 75%, 70%)" opacity="0.92"></circle><circle r="14" cx="684" cy="85" fill="hsl(327, 75%, 70%)" opacity="0.13"></circle><circle r="5.5" cx="46" cy="731" fill="hsl(61, 75%, 70%)" opacity="0.28"></circle><circle r="11" cx="661" cy="54" fill="hsl(288, 75%, 70%)" opacity="0.10"></circle><circle r="14.5" cx="348" cy="28" fill="hsl(251, 75%, 70%)" opacity="0.36"></circle><circle r="16.5" cx="563" cy="554" fill="hsl(263, 75%, 70%)" opacity="0.70"></circle><circle r="17.5" cx="549" cy="244" fill="hsl(237, 75%, 70%)" opacity="0.53"></circle><circle r="10" cx="489" cy="237" fill="hsl(197, 75%, 70%)" opacity="0.35"></circle><circle r="15.5" cx="237" cy="534" fill="hsl(308, 75%, 70%)" opacity="0.54"></circle><circle r="10.5" cx="325" cy="400" fill="hsl(304, 75%, 70%)" opacity="0.83"></circle><circle r="13" cx="230" cy="242" fill="hsl(308, 75%, 70%)" opacity="0.53"></circle><circle r="6" cx="71" cy="655" fill="hsl(80, 75%, 70%)" opacity="0.79"></circle><circle r="7.5" cx="505" cy="125" fill="hsl(208, 75%, 70%)" opacity="0.33"></circle><circle r="7.5" cx="198" cy="662" fill="hsl(266, 75%, 70%)" opacity="0.82"></circle><circle r="15.5" cx="300" cy="453" fill="hsl(319, 75%, 70%)" opacity="0.86"></circle><circle r="13" cx="286" cy="23" fill="hsl(224, 75%, 70%)" opacity="0.50"></circle><circle r="6" cx="21" cy="632" fill="hsl(54, 75%, 70%)" opacity="0.55"></circle><circle r="14.5" cx="682" cy="417" fill="hsl(297, 75%, 70%)" opacity="0.33"></circle><circle r="5.5" cx="169" cy="681" fill="hsl(228, 75%, 70%)" opacity="0.17"></circle><circle r="12" cx="111" cy="326" fill="hsl(126, 75%, 70%)" opacity="0.53"></circle><circle r="4.5" cx="21" cy="666" fill="hsl(54, 75%, 70%)" opacity="0.30"></circle><circle r="14" cx="622" cy="540" fill="hsl(302, 75%, 70%)" opacity="0.61"></circle><circle r="13" cx="195" cy="372" fill="hsl(266, 75%, 70%)" opacity="0.89"></circle><circle r="6.5" cx="141" cy="681" fill="hsl(186, 75%, 70%)" opacity="0.12"></circle><circle r="10.5" cx="716" cy="152" fill="hsl(304, 75%, 70%)" opacity="0.77"></circle><circle r="13" cx="38" cy="35" fill="hsl(96, 75%, 70%)" opacity="0.48"></circle><circle r="7" cx="602" cy="14" fill="hsl(182, 75%, 70%)" opacity="0.25"></circle><circle r="14.5" cx="522" cy="359" fill="hsl(213, 75%, 70%)" opacity="0.93"></circle><circle r="11.5" cx="294" cy="204" fill="hsl(319, 75%, 70%)" opacity="0.26"></circle><circle r="7" cx="476" cy="37" fill="hsl(156, 75%, 70%)" opacity="0.48"></circle><circle r="6" cx="17" cy="388" fill="hsl(54, 75%, 70%)" opacity="0.91"></circle><circle r="8" cx="457" cy="92" fill="hsl(192, 75%, 70%)" opacity="0.76"></circle><circle r="10" cx="455" cy="418" fill="hsl(191, 75%, 70%)" opacity="0.64"></circle><circle r="13.5" cx="246" cy="773" fill="hsl(316, 75%, 70%)" opacity="0.13"></circle><circle r="10.5" cx="392" cy="777" fill="hsl(232, 75%, 70%)" opacity="0.77"></circle><circle r="11.5" cx="162" cy="536" fill="hsl(207, 75%, 70%)" opacity="0.56"></circle><circle r="11" cx="564" cy="82" fill="hsl(225, 75%, 70%)" opacity="0.86"></circle><circle r="6.5" cx="475" cy="66" fill="hsl(178, 75%, 70%)" opacity="0.79"></circle><circle r="6.5" cx="490" cy="203" fill="hsl(197, 75%, 70%)" opacity="0.26"></circle><circle r="10.5" cx="584" cy="128" fill="hsl(279, 75%, 70%)" opacity="0.32"></circle><circle r="5.5" cx="373" cy="385" fill="hsl(257, 75%, 70%)" opacity="0.36"></circle><circle r="9.5" cx="604" cy="316" fill="hsl(295, 75%, 70%)" opacity="0.22"></circle><circle r="11" cx="485" cy="764" fill="hsl(192, 75%, 70%)" opacity="0.22"></circle><circle r="12" cx="703" cy="579" fill="hsl(276, 75%, 70%)" opacity="0.47"></circle><circle r="8" cx="208" cy="126" fill="hsl(188, 75%, 70%)" opacity="0.62"></circle><circle r="17" cx="183" cy="453" fill="hsl(248, 75%, 70%)" opacity="0.93"></circle><circle r="12" cx="555" cy="190" fill="hsl(250, 75%, 70%)" opacity="0.16"></circle><circle r="6.5" cx="134" cy="283" fill="hsl(165, 75%, 70%)" opacity="0.79"></circle><circle r="11.5" cx="243" cy="124" fill="hsl(226, 75%, 70%)" opacity="0.42"></circle><circle r="14.5" cx="533" cy="442" fill="hsl(225, 75%, 70%)" opacity="0.89"></circle><circle r="13.5" cx="177" cy="164" fill="hsl(208, 75%, 70%)" opacity="0.91"></circle><circle r="15" cx="664" cy="755" fill="hsl(303, 75%, 70%)" opacity="0.54"></circle><circle r="6.5" cx="415" cy="141" fill="hsl(221, 75%, 70%)" opacity="0.26"></circle><circle r="11" cx="403" cy="301" fill="hsl(220, 75%, 70%)" opacity="0.84"></circle><circle r="6.5" cx="53" cy="558" fill="hsl(69, 75%, 70%)" opacity="0.76"></circle><circle r="9.5" cx="690" cy="655" fill="hsl(287, 75%, 70%)" opacity="0.53"></circle><circle r="7.5" cx="456" cy="249" fill="hsl(191, 75%, 70%)" opacity="0.58"></circle><circle r="13.5" cx="159" cy="397" fill="hsl(207, 75%, 70%)" opacity="0.11"></circle><circle r="6.5" cx="104" cy="152" fill="hsl(75, 75%, 70%)" opacity="0.23"></circle><circle r="7.5" cx="307" cy="95" fill="hsl(258, 75%, 70%)" opacity="0.72"></circle><circle r="9" cx="782" cy="359" fill="hsl(180, 75%, 70%)" opacity="0.34"></circle><circle r="8.5" cx="626" cy="55" fill="hsl(264, 75%, 70%)" opacity="0.54"></circle><circle r="5" cx="31" cy="589" fill="hsl(56, 75%, 70%)" opacity="0.47"></circle><circle r="8" cx="742" cy="13" fill="hsl(259, 75%, 70%)" opacity="0.34"></circle><circle r="9" cx="754" cy="301" fill="hsl(215, 75%, 70%)" opacity="0.33"></circle><circle r="12.5" cx="540" cy="676" fill="hsl(237, 75%, 70%)" opacity="0.91"></circle><circle r="14.5" cx="657" cy="376" fill="hsl(307, 75%, 70%)" opacity="0.35"></circle><circle r="6.5" cx="65" cy="464" fill="hsl(80, 75%, 70%)" opacity="0.31"></circle><circle r="8" cx="20" cy="213" fill="hsl(54, 75%, 70%)" opacity="0.19"></circle><circle r="8" cx="107" cy="674" fill="hsl(126, 75%, 70%)" opacity="0.19"></circle><circle r="11.5" cx="398" cy="645" fill="hsl(232, 75%, 70%)" opacity="0.34"></circle><circle r="8" cx="102" cy="268" fill="hsl(126, 75%, 70%)" opacity="0.65"></circle><circle r="7.5" cx="729" cy="125" fill="hsl(317, 75%, 70%)" opacity="0.26"></circle><circle r="12" cx="517" cy="531" fill="hsl(213, 75%, 70%)" opacity="0.27"></circle><circle r="13.5" cx="128" cy="467" fill="hsl(165, 75%, 70%)" opacity="0.55"></circle><circle r="6" cx="184" cy="87" fill="hsl(89, 75%, 70%)" opacity="0.12"></circle><circle r="10" cx="151" cy="232" fill="hsl(207, 75%, 70%)" opacity="0.25"></circle><circle r="9.5" cx="624" cy="130" fill="hsl(317, 75%, 70%)" opacity="0.78"></circle><circle r="8" cx="766" cy="594" fill="hsl(197, 75%, 70%)" opacity="0.12"></circle><circle r="13" cx="652" cy="508" fill="hsl(307, 75%, 70%)" opacity="0.75"></circle><circle r="10" cx="717" cy="57" fill="hsl(309, 75%, 70%)" opacity="0.92"></circle><circle r="10.5" cx="329" cy="206" fill="hsl(294, 75%, 70%)" opacity="0.89"></circle><circle r="11" cx="727" cy="434" fill="hsl(248, 75%, 70%)" opacity="0.59"></circle><circle r="14.5" cx="249" cy="670" fill="hsl(316, 75%, 70%)" opacity="0.35"></circle><circle r="12" cx="653" cy="635" fill="hsl(307, 75%, 70%)" opacity="0.19"></circle><circle r="7.5" cx="528" cy="143" fill="hsl(230, 75%, 70%)" opacity="0.40"></circle><circle r="13" cx="564" cy="333" fill="hsl(263, 75%, 70%)" opacity="0.72"></circle><circle r="11.5" cx="210" cy="775" fill="hsl(283, 75%, 70%)" opacity="1.00"></circle><circle r="13.5" cx="348" cy="174" fill="hsl(283, 75%, 70%)" opacity="0.57"></circle><circle r="10.5" cx="473" cy="536" fill="hsl(190, 75%, 70%)" opacity="0.68"></circle><circle r="16" cx="698" cy="251" fill="hsl(287, 75%, 70%)" opacity="0.86"></circle><circle r="12" cx="699" cy="460" fill="hsl(287, 75%, 70%)" opacity="0.46"></circle><circle r="9.5" cx="546" cy="114" fill="hsl(231, 75%, 70%)" opacity="0.73"></circle><circle r="5.5" cx="788" cy="412" fill="hsl(162, 75%, 70%)" opacity="0.56"></circle><circle r="10" cx="485" cy="485" fill="hsl(192, 75%, 70%)" opacity="0.75"></circle><circle r="7" cx="17" cy="526" fill="hsl(54, 75%, 70%)" opacity="0.30"></circle><circle r="8" cx="22" cy="97" fill="hsl(65, 75%, 70%)" opacity="0.33"></circle><circle r="11.5" cx="751" cy="147" fill="hsl(274, 75%, 70%)" opacity="0.47"></circle><circle r="10.5" cx="772" cy="99" fill="hsl(289, 75%, 70%)" opacity="0.12"></circle><circle r="14.5" cx="595" cy="180" fill="hsl(292, 75%, 70%)" opacity="0.10"></circle><circle r="8" cx="617" cy="787" fill="hsl(302, 75%, 70%)" opacity="0.55"></circle><circle r="11" cx="372" cy="226" fill="hsl(257, 75%, 70%)" opacity="0.37"></circle><circle r="18.5" cx="696" cy="715" fill="hsl(287, 75%, 70%)" opacity="0.51"></circle><circle r="9.5" cx="407" cy="210" fill="hsl(220, 75%, 70%)" opacity="0.75"></circle><circle r="5.5" cx="174" cy="57" fill="hsl(64, 75%, 70%)" opacity="0.12"></circle><circle r="15.5" cx="194" cy="510" fill="hsl(266, 75%, 70%)" opacity="0.19"></circle><circle r="7.5" cx="487" cy="103" fill="hsl(191, 75%, 70%)" opacity="0.20"></circle><circle r="10.5" cx="492" cy="573" fill="hsl(197, 75%, 70%)" opacity="0.70"></circle><circle r="10" cx="390" cy="17" fill="hsl(227, 75%, 70%)" opacity="0.99"></circle><circle r="7.5" cx="775" cy="327" fill="hsl(197, 75%, 70%)" opacity="0.14"></circle><circle r="10.5" cx="214" cy="699" fill="hsl(297, 75%, 70%)" opacity="0.39"></circle><circle r="6.5" cx="431" cy="227" fill="hsl(201, 75%, 70%)" opacity="0.94"></circle><circle r="12" cx="117" cy="569" fill="hsl(145, 75%, 70%)" opacity="0.13"></circle><circle r="5" cx="487" cy="11" fill="hsl(147, 75%, 70%)" opacity="0.37"></circle><circle r="14.5" cx="738" cy="493" fill="hsl(232, 75%, 70%)" opacity="0.68"></circle><circle r="6.5" cx="191" cy="17" fill="hsl(102, 75%, 70%)" opacity="0.67"></circle><circle r="7.5" cx="406" cy="612" fill="hsl(220, 75%, 70%)" opacity="0.44"></circle><circle r="11" cx="750" cy="75" fill="hsl(307, 75%, 70%)" opacity="0.83"></circle><circle r="5.5" cx="55" cy="617" fill="hsl(69, 75%, 70%)" opacity="0.87"></circle><circle r="6.5" cx="122" cy="705" fill="hsl(145, 75%, 70%)" opacity="0.54"></circle><circle r="22.5" cx="596" cy="482" fill="hsl(286, 75%, 70%)" opacity="0.13"></circle><circle r="15.5" cx="292" cy="583" fill="hsl(319, 75%, 70%)" opacity="0.59"></circle><circle r="9" cx="97" cy="506" fill="hsl(109, 75%, 70%)" opacity="0.50"></circle><circle r="8.5" cx="437" cy="608" fill="hsl(201, 75%, 70%)" opacity="0.46"></circle><circle r="8" cx="169" cy="775" fill="hsl(228, 75%, 70%)" opacity="0.23"></circle><circle r="10.5" cx="321" cy="761" fill="hsl(304, 75%, 70%)" opacity="0.43"></circle><circle r="13" cx="228" cy="351" fill="hsl(308, 75%, 70%)" opacity="0.38"></circle><circle r="9.5" cx="260" cy="85" fill="hsl(206, 75%, 70%)" opacity="0.39"></circle><circle r="6.5" cx="58" cy="427" fill="hsl(69, 75%, 70%)" opacity="0.78"></circle><circle r="9.5" cx="343" cy="785" fill="hsl(282, 75%, 70%)" opacity="0.53"></circle><circle r="13.5" cx="543" cy="494" fill="hsl(237, 75%, 70%)" opacity="0.33"></circle><circle r="8" cx="521" cy="23" fill="hsl(135, 75%, 70%)" opacity="0.52"></circle><circle r="12" cx="607" cy="725" fill="hsl(295, 75%, 70%)" opacity="0.75"></circle><circle r="8.5" cx="455" cy="783" fill="hsl(191, 75%, 70%)" opacity="0.46"></circle><circle r="13.5" cx="734" cy="752" fill="hsl(248, 75%, 70%)" opacity="0.65"></circle><circle r="12" cx="368" cy="744" fill="hsl(257, 75%, 70%)" opacity="0.97"></circle><circle r="11.5" cx="622" cy="671" fill="hsl(302, 75%, 70%)" opacity="0.25"></circle><circle r="9.5" cx="502" cy="163" fill="hsl(211, 75%, 70%)" opacity="0.34"></circle><circle r="12.5" cx="665" cy="163" fill="hsl(325, 75%, 70%)" opacity="0.64"></circle><circle r="14" cx="660" cy="469" fill="hsl(307, 75%, 70%)" opacity="0.24"></circle><circle r="18" cx="224" cy="594" fill="hsl(297, 75%, 70%)" opacity="0.63"></circle><circle r="10.5" cx="320" cy="243" fill="hsl(304, 75%, 70%)" opacity="1.00"></circle><circle r="14" cx="244" cy="719" fill="hsl(316, 75%, 70%)" opacity="0.68"></circle><circle r="13" cx="333" cy="501" fill="hsl(294, 75%, 70%)" opacity="0.60"></circle><circle r="5" cx="789" cy="704" fill="hsl(162, 75%, 70%)" opacity="0.26"></circle><circle r="15.5" cx="513" cy="291" fill="hsl(213, 75%, 70%)" opacity="0.40"></circle><circle r="10" cx="592" cy="56" fill="hsl(222, 75%, 70%)" opacity="0.39"></circle><circle r="16" cx="523" cy="733" fill="hsl(213, 75%, 70%)" opacity="0.76"></circle><circle r="6.5" cx="69" cy="97" fill="hsl(26, 75%, 70%)" opacity="0.40"></circle><circle r="8" cx="451" cy="497" fill="hsl(191, 75%, 70%)" opacity="0.89"></circle><circle r="13" cx="346" cy="337" fill="hsl(282, 75%, 70%)" opacity="0.50"></circle><circle r="10.5" cx="433" cy="530" fill="hsl(201, 75%, 70%)" opacity="0.53"></circle><circle r="14" cx="295" cy="346" fill="hsl(319, 75%, 70%)" opacity="0.43"></circle><circle r="7" cx="146" cy="653" fill="hsl(186, 75%, 70%)" opacity="0.92"></circle><circle r="10" cx="603" cy="644" fill="hsl(295, 75%, 70%)" opacity="1.00"></circle><circle r="3.5" cx="59" cy="677" fill="hsl(69, 75%, 70%)" opacity="0.27"></circle><circle r="6.5" cx="658" cy="791" fill="hsl(307, 75%, 70%)" opacity="0.25"></circle><circle r="12" cx="259" cy="205" fill="hsl(322, 75%, 70%)" opacity="0.37"></circle><circle r="6.5" cx="774" cy="763" fill="hsl(197, 75%, 70%)" opacity="0.97"></circle><circle r="13" cx="244" cy="168" fill="hsl(290, 75%, 70%)" opacity="0.90"></circle><circle r="8" cx="518" cy="88" fill="hsl(195, 75%, 70%)" opacity="0.69"></circle><circle r="6" cx="16" cy="747" fill="hsl(54, 75%, 70%)" opacity="0.76"></circle><circle r="10" cx="384" cy="444" fill="hsl(245, 75%, 70%)" opacity="0.94"></circle><circle r="11.5" cx="769" cy="452" fill="hsl(197, 75%, 70%)" opacity="0.35"></circle><circle r="6" cx="707" cy="10" fill="hsl(244, 75%, 70%)" opacity="0.27"></circle><circle r="13.5" cx="231" cy="406" fill="hsl(308, 75%, 70%)" opacity="0.20"></circle><circle r="8.5" cx="387" cy="332" fill="hsl(245, 75%, 70%)" opacity="0.92"></circle><circle r="16" cx="356" cy="555" fill="hsl(270, 75%, 70%)" opacity="0.33"></circle><circle r="10" cx="440" cy="334" fill="hsl(195, 75%, 70%)" opacity="0.66"></circle><circle r="5.5" cx="778" cy="617" fill="hsl(180, 75%, 70%)" opacity="0.88"></circle><circle r="9" cx="397" cy="58" fill="hsl(227, 75%, 70%)" opacity="0.23"></circle><circle r="12" cx="658" cy="115" fill="hsl(337, 75%, 70%)" opacity="0.87"></circle><circle r="7.5" cx="90" cy="754" fill="hsl(109, 75%, 70%)" opacity="0.22"></circle><circle r="21.5" cx="621" cy="419" fill="hsl(302, 75%, 70%)" opacity="0.58"></circle><circle r="13.5" cx="696" cy="192" fill="hsl(287, 75%, 70%)" opacity="0.42"></circle><circle r="10.5" cx="561" cy="25" fill="hsl(156, 75%, 70%)" opacity="0.55"></circle><circle r="14" cx="688" cy="349" fill="hsl(287, 75%, 70%)" opacity="0.62"></circle><circle r="11.5" cx="225" cy="277" fill="hsl(308, 75%, 70%)" opacity="0.83"></circle><circle r="4.5" cx="380" cy="370" fill="hsl(245, 75%, 70%)" opacity="0.81"></circle><circle r="5.5" cx="17" cy="146" fill="hsl(50, 75%, 70%)" opacity="0.86"></circle><circle r="11.5" cx="630" cy="159" fill="hsl(326, 75%, 70%)" opacity="0.32"></circle><circle r="13" cx="722" cy="540" fill="hsl(263, 75%, 70%)" opacity="0.92"></circle><circle r="10.5" cx="227" cy="55" fill="hsl(155, 75%, 70%)" opacity="0.50"></circle><circle r="8.5" cx="116" cy="223" fill="hsl(145, 75%, 70%)" opacity="0.84"></circle><circle r="10" cx="401" cy="567" fill="hsl(220, 75%, 70%)" opacity="0.95"></circle><circle r="9" cx="759" cy="401" fill="hsl(215, 75%, 70%)" opacity="0.95"></circle><circle r="9.5" cx="781" cy="19" fill="hsl(234, 75%, 70%)" opacity="0.86"></circle><circle r="17.5" cx="351" cy="609" fill="hsl(270, 75%, 70%)" opacity="0.29"></circle><circle r="13" cx="727" cy="381" fill="hsl(248, 75%, 70%)" opacity="0.67"></circle><circle r="9" cx="189" cy="722" fill="hsl(266, 75%, 70%)" opacity="0.60"></circle><circle r="6" cx="135" cy="729" fill="hsl(165, 75%, 70%)" opacity="0.33"></circle><circle r="7" cx="157" cy="708" fill="hsl(207, 75%, 70%)" opacity="0.46"></circle><circle r="9" cx="487" cy="610" fill="hsl(192, 75%, 70%)" opacity="0.83"></circle><circle r="7" cx="188" cy="685" fill="hsl(266, 75%, 70%)" opacity="0.47"></circle><circle r="9.5" cx="425" cy="71" fill="hsl(210, 75%, 70%)" opacity="0.91"></circle><circle r="5.5" cx="104" cy="114" fill="hsl(36, 75%, 70%)" opacity="0.27"></circle><circle r="15.5" cx="308" cy="710" fill="hsl(312, 75%, 70%)" opacity="0.52"></circle><circle r="9.5" cx="263" cy="338" fill="hsl(324, 75%, 70%)" opacity="0.16"></circle><circle r="12" cx="745" cy="245" fill="hsl(232, 75%, 70%)" opacity="0.31"></circle><circle r="19.5" cx="336" cy="665" fill="hsl(294, 75%, 70%)" opacity="0.96"></circle><circle r="9.5" cx="734" cy="187" fill="hsl(264, 75%, 70%)" opacity="0.61"></circle><circle r="11.5" cx="329" cy="137" fill="hsl(279, 75%, 70%)" opacity="0.72"></circle><circle r="14.5" cx="293" cy="503" fill="hsl(319, 75%, 70%)" opacity="0.95"></circle><circle r="9.5" cx="782" cy="172" fill="hsl(213, 75%, 70%)" opacity="0.92"></circle><circle r="9.5" cx="770" cy="49" fill="hsl(271, 75%, 70%)" opacity="0.44"></circle><circle r="9.5" cx="523" cy="644" fill="hsl(213, 75%, 70%)" opacity="0.43"></circle><circle r="5.5" cx="788" cy="783" fill="hsl(162, 75%, 70%)" opacity="0.12"></circle><circle r="7.5" cx="390" cy="123" fill="hsl(238, 75%, 70%)" opacity="0.27"></circle><circle r="3.5" cx="11" cy="477" fill="hsl(53, 75%, 70%)" opacity="0.10"></circle><circle r="6.5" cx="711" cy="33" fill="hsl(281, 75%, 70%)" opacity="0.33"></circle><circle r="6.5" cx="108" cy="634" fill="hsl(126, 75%, 70%)" opacity="0.16"></circle><circle r="4.5" cx="40" cy="695" fill="hsl(61, 75%, 70%)" opacity="0.32"></circle><circle r="11" cx="404" cy="171" fill="hsl(228, 75%, 70%)" opacity="0.26"></circle><circle r="8.5" cx="331" cy="104" fill="hsl(267, 75%, 70%)" opacity="0.43"></circle><circle r="9" cx="588" cy="619" fill="hsl(286, 75%, 70%)" opacity="0.72"></circle><circle r="10.5" cx="413" cy="479" fill="hsl(210, 75%, 70%)" opacity="0.71"></circle><circle r="7.5" cx="55" cy="154" fill="hsl(44, 75%, 70%)" opacity="0.70"></circle><circle r="11" cx="396" cy="522" fill="hsl(232, 75%, 70%)" opacity="0.38"></circle><circle r="12.5" cx="574" cy="700" fill="hsl(263, 75%, 70%)" opacity="0.93"></circle><circle r="20" cx="283" cy="636" fill="hsl(323, 75%, 70%)" opacity="0.95"></circle><circle r="12.5" cx="683" cy="309" fill="hsl(297, 75%, 70%)" opacity="0.29"></circle><circle r="9" cx="605" cy="104" fill="hsl(291, 75%, 70%)" opacity="0.81"></circle><circle r="10.5" cx="630" cy="85" fill="hsl(294, 75%, 70%)" opacity="0.88"></circle><circle r="10.5" cx="744" cy="646" fill="hsl(232, 75%, 70%)" opacity="0.29"></circle><circle r="8.5" cx="358" cy="403" fill="hsl(270, 75%, 70%)" opacity="0.70"></circle><circle r="6.5" cx="55" cy="512" fill="hsl(69, 75%, 70%)" opacity="0.42"></circle><circle r="10.5" cx="611" cy="575" fill="hsl(295, 75%, 70%)" opacity="0.44"></circle><circle r="10" cx="760" cy="206" fill="hsl(215, 75%, 70%)" opacity="0.54"></circle><circle r="12" cx="435" cy="381" fill="hsl(201, 75%, 70%)" opacity="0.15"></circle><circle r="12" cx="534" cy="597" fill="hsl(225, 75%, 70%)" opacity="0.48"></circle><circle r="8.5" cx="367" cy="121" fill="hsl(255, 75%, 70%)" opacity="0.54"></circle><circle r="9.5" cx="441" cy="574" fill="hsl(195, 75%, 70%)" opacity="0.99"></circle><circle r="3.5" cx="30" cy="467" fill="hsl(56, 75%, 70%)" opacity="0.13"></circle><circle r="8" cx="290" cy="761" fill="hsl(319, 75%, 70%)" opacity="0.99"></circle><circle r="9.5" cx="332" cy="431" fill="hsl(294, 75%, 70%)" opacity="0.47"></circle><circle r="7" cx="776" cy="735" fill="hsl(180, 75%, 70%)" opacity="0.13"></circle><circle r="5" cx="413" cy="112" fill="hsl(217, 75%, 70%)" opacity="0.78"></circle><circle r="10" cx="616" cy="758" fill="hsl(302, 75%, 70%)" opacity="0.42"></circle><circle r="9.5" cx="163" cy="627" fill="hsl(228, 75%, 70%)" opacity="0.93"></circle><circle r="16.5" cx="608" cy="238" fill="hsl(295, 75%, 70%)" opacity="0.61"></circle><circle r="11.5" cx="691" cy="614" fill="hsl(287, 75%, 70%)" opacity="0.44"></circle><circle r="11" cx="720" cy="100" fill="hsl(329, 75%, 70%)" opacity="0.74"></circle><circle r="5.5" cx="139" cy="111" fill="hsl(60, 75%, 70%)" opacity="0.78"></circle><circle r="8.5" cx="283" cy="788" fill="hsl(323, 75%, 70%)" opacity="0.91"></circle><circle r="6.5" cx="787" cy="663" fill="hsl(180, 75%, 70%)" opacity="0.42"></circle><circle r="13" cx="358" cy="74" fill="hsl(249, 75%, 70%)" opacity="0.78"></circle><circle r="12" cx="371" cy="495" fill="hsl(257, 75%, 70%)" opacity="0.94"></circle><circle r="16.5" cx="237" cy="476" fill="hsl(308, 75%, 70%)" opacity="0.46"></circle><circle r="11" cx="110" cy="392" fill="hsl(126, 75%, 70%)" opacity="0.19"></circle><circle r="12.5" cx="733" cy="337" fill="hsl(248, 75%, 70%)" opacity="0.33"></circle><circle r="9.5" cx="729" cy="287" fill="hsl(248, 75%, 70%)" opacity="0.85"></circle><circle r="13" cx="459" cy="710" fill="hsl(191, 75%, 70%)" opacity="0.16"></circle><circle r="7.5" cx="681" cy="131" fill="hsl(339, 75%, 70%)" opacity="0.64"></circle><circle r="10.5" cx="214" cy="636" fill="hsl(297, 75%, 70%)" opacity="0.68"></circle><circle r="7" cx="746" cy="788" fill="hsl(232, 75%, 70%)" opacity="0.80"></circle><circle r="11" cx="169" cy="277" fill="hsl(228, 75%, 70%)" opacity="0.37"></circle><circle r="10.5" cx="353" cy="452" fill="hsl(270, 75%, 70%)" opacity="0.95"></circle><circle r="7" cx="768" cy="680" fill="hsl(197, 75%, 70%)" opacity="0.17"></circle><circle r="7" cx="399" cy="358" fill="hsl(232, 75%, 70%)" opacity="0.13"></circle><circle r="10.5" cx="31" cy="314" fill="hsl(56, 75%, 70%)" opacity="0.55"></circle><circle r="9.5" cx="676" cy="23" fill="hsl(253, 75%, 70%)" opacity="0.77"></circle><circle r="10.5" cx="493" cy="391" fill="hsl(197, 75%, 70%)" opacity="0.72"></circle><circle r="8" cx="718" cy="661" fill="hsl(263, 75%, 70%)" opacity="0.73"></circle><circle r="11.5" cx="276" cy="737" fill="hsl(323, 75%, 70%)" opacity="0.44"></circle><circle r="11" cx="431" cy="673" fill="hsl(201, 75%, 70%)" opacity="0.68"></circle><circle r="10.5" cx="403" cy="413" fill="hsl(220, 75%, 70%)" opacity="0.19"></circle><circle r="11.5" cx="685" cy="527" fill="hsl(297, 75%, 70%)" opacity="0.19"></circle><circle r="10" cx="763" cy="559" fill="hsl(197, 75%, 70%)" opacity="0.62"></circle></svg>