<svg id="svg" xmlns="http://www.w3.org/2000/svg" xmlns:xlink="http://www.w3.org/1999/xlink" width="400" height="73.46938775510203" viewBox="0, 0, 400,73.46938775510203" version="1.1"><g id="svgg"><path id="path0" d="M168.882 12.667 C 168.789 13.023,168.613 13.050,166.774 13.001 C 166.186 12.985,165.838 13.039,165.897 13.135 C 166.110 13.479,165.502 13.652,163.910 13.700 C 162.333 13.747,162.247 13.769,162.197 14.125 C 162.145 14.487,162.082 14.500,160.389 14.500 C 158.776 14.500,158.628 14.527,158.548 14.833 C 158.471 15.128,158.321 15.167,157.264 15.167 C 156.537 15.167,155.979 15.248,155.842 15.375 C 155.662 15.543,155.642 15.540,155.743 15.362 C 155.837 15.196,155.750 15.155,155.393 15.196 C 155.047 15.235,154.902 15.352,154.863 15.625 C 154.834 15.831,154.755 16.000,154.687 16.000 C 154.619 16.000,154.418 16.118,154.240 16.262 C 153.928 16.516,153.931 16.522,154.333 16.438 C 154.749 16.351,154.749 16.351,154.404 16.637 C 153.999 16.972,154.056 17.333,154.514 17.333 C 154.716 17.333,154.833 17.449,154.833 17.649 C 154.833 17.822,154.955 18.011,155.103 18.068 C 155.311 18.148,155.353 18.094,155.286 17.836 C 155.237 17.651,155.266 17.542,155.349 17.593 C 155.432 17.644,155.500 17.860,155.500 18.073 C 155.500 18.285,155.627 18.562,155.782 18.688 C 156.025 18.885,156.044 18.882,155.917 18.667 C 155.791 18.454,155.810 18.450,156.041 18.637 C 156.191 18.758,156.337 19.021,156.365 19.220 C 156.400 19.464,156.530 19.580,156.763 19.573 C 157.036 19.565,157.093 19.644,157.035 19.948 C 156.977 20.250,157.036 20.333,157.304 20.333 C 157.589 20.333,157.656 20.454,157.699 21.042 C 157.741 21.631,157.813 21.759,158.125 21.803 C 158.484 21.854,158.609 22.235,158.509 22.971 C 158.493 23.093,158.634 23.233,158.823 23.282 C 159.095 23.353,159.167 23.506,159.167 24.010 C 159.167 24.360,159.238 24.691,159.326 24.746 C 159.414 24.800,159.446 24.947,159.397 25.074 C 159.345 25.209,159.451 25.348,159.655 25.413 C 160.249 25.601,160.033 25.755,159.259 25.694 C 158.651 25.645,158.510 25.571,158.468 25.276 C 158.423 24.961,158.294 24.910,157.422 24.866 C 156.723 24.830,156.500 24.768,156.672 24.657 C 157.233 24.296,156.319 24.177,153.023 24.182 C 149.807 24.186,149.626 24.203,149.546 24.510 C 149.480 24.760,149.314 24.833,148.814 24.833 C 148.235 24.833,148.167 24.877,148.167 25.250 C 148.167 25.562,148.079 25.667,147.818 25.667 C 147.609 25.667,147.434 25.801,147.382 26.000 C 147.333 26.184,147.154 26.333,146.981 26.333 C 146.782 26.333,146.667 26.451,146.667 26.655 C 146.667 26.862,146.533 26.996,146.292 27.030 C 146.051 27.064,145.898 27.217,145.863 27.458 C 145.829 27.704,145.696 27.833,145.478 27.833 C 145.261 27.833,145.156 27.935,145.175 28.125 C 145.257 28.930,145.152 29.316,144.821 29.420 C 144.614 29.486,144.512 29.624,144.566 29.765 C 144.616 29.894,144.589 30.000,144.507 30.000 C 144.343 30.000,144.276 39.657,144.437 40.076 C 144.491 40.218,144.678 40.333,144.851 40.333 C 145.168 40.333,145.257 40.633,145.186 41.458 C 145.160 41.759,145.240 41.833,145.587 41.833 C 145.845 41.833,145.976 41.904,145.912 42.007 C 145.713 42.330,146.198 42.667,146.864 42.667 C 147.303 42.667,147.482 42.728,147.405 42.852 C 147.168 43.236,147.839 43.312,151.617 43.327 C 155.414 43.343,155.500 43.336,155.500 43.005 C 155.500 42.697,156.950 42.484,157.893 42.653 C 158.146 42.698,158.518 42.286,158.429 42.057 C 158.366 41.891,158.532 41.833,159.075 41.833 C 159.503 41.833,159.840 41.747,159.890 41.625 C 159.936 41.510,159.980 42.000,159.987 42.714 L 160.000 44.011 161.403 43.965 C 162.175 43.939,162.803 43.881,162.800 43.834 C 162.761 43.299,162.859 43.231,163.583 43.285 C 164.244 43.335,164.333 43.302,164.333 43.004 C 164.333 42.721,164.447 42.664,165.042 42.650 C 166.519 42.616,166.581 42.599,166.637 42.208 C 166.716 41.653,171.833 41.611,171.833 42.167 C 171.833 42.350,171.890 42.506,171.958 42.512 C 172.027 42.519,172.262 42.558,172.480 42.598 C 173.176 42.726,173.288 42.457,173.268 40.707 C 173.251 39.157,173.233 39.081,172.875 39.030 C 172.518 38.979,172.500 38.905,172.500 37.488 L 172.500 36.000 170.292 35.987 C 169.077 35.980,168.180 35.935,168.299 35.887 C 168.471 35.818,168.473 35.746,168.307 35.525 C 168.132 35.293,168.136 35.283,168.333 35.458 C 168.708 35.793,168.785 35.709,168.792 34.958 C 168.804 33.717,168.819 33.667,169.174 33.667 C 169.361 33.667,169.502 33.573,169.488 33.458 C 169.358 32.457,169.526 30.667,169.750 30.667 C 169.887 30.667,170.000 30.587,170.000 30.490 C 170.000 30.393,170.073 30.359,170.161 30.413 C 170.263 30.476,170.321 29.415,170.317 27.541 C 170.312 24.818,170.234 24.113,169.940 24.152 C 169.881 24.160,169.758 24.167,169.667 24.167 C 169.564 24.167,169.500 23.361,169.500 22.083 C 169.500 20.728,169.438 20.000,169.323 20.000 C 169.226 20.000,169.193 19.925,169.250 19.833 C 169.307 19.742,169.236 19.667,169.093 19.667 C 168.896 19.667,168.833 19.485,168.833 18.917 C 168.833 18.219,168.933 18.077,169.375 18.147 C 169.444 18.158,169.500 17.987,169.500 17.768 C 169.500 17.319,169.689 17.214,170.422 17.255 L 170.928 17.283 170.974 15.308 C 171.006 13.934,170.964 13.333,170.834 13.333 C 170.731 13.333,170.693 13.258,170.750 13.167 C 170.807 13.075,170.736 13.000,170.593 13.000 C 170.450 13.000,170.333 12.883,170.333 12.740 C 170.333 12.597,170.258 12.527,170.167 12.583 C 170.075 12.640,170.000 12.607,170.000 12.510 C 170.000 12.165,168.975 12.309,168.882 12.667 M221.686 12.458 C 221.756 12.900,221.614 13.000,220.917 13.000 C 220.285 13.000,220.167 13.051,220.167 13.324 C 220.167 13.585,220.031 13.657,219.458 13.699 C 218.869 13.741,218.741 13.813,218.697 14.125 C 218.658 14.395,218.531 14.500,218.244 14.500 C 217.950 14.500,217.870 14.569,217.944 14.760 C 218.010 14.934,217.925 15.051,217.686 15.113 C 217.490 15.165,217.286 15.382,217.232 15.597 C 217.178 15.812,216.991 16.033,216.817 16.089 C 216.643 16.144,216.500 16.267,216.500 16.362 C 216.500 16.458,216.631 16.490,216.792 16.434 C 217.001 16.361,216.976 16.424,216.704 16.655 C 216.496 16.832,216.343 17.038,216.365 17.113 C 216.386 17.188,216.316 17.409,216.208 17.603 C 216.100 17.797,216.065 18.016,216.131 18.088 C 216.196 18.161,216.160 18.168,216.049 18.105 C 215.938 18.041,215.895 17.867,215.952 17.717 C 216.020 17.542,215.991 17.486,215.871 17.560 C 215.477 17.803,215.599 27.000,215.996 27.000 C 216.537 27.000,216.493 28.431,215.948 28.535 C 215.644 28.593,215.565 28.536,215.573 28.263 C 215.583 27.942,215.478 27.913,214.125 27.869 L 212.667 27.820 212.649 26.619 C 212.617 24.472,212.609 24.428,212.208 24.252 C 211.978 24.151,211.833 23.942,211.833 23.710 C 211.833 23.444,211.735 23.333,211.500 23.333 C 211.278 23.333,211.167 23.222,211.167 23.000 C 211.167 22.760,211.056 22.667,210.768 22.667 C 210.482 22.667,210.340 22.549,210.265 22.250 C 210.175 21.893,210.066 21.833,209.497 21.833 C 208.941 21.833,208.833 21.778,208.833 21.494 C 208.833 20.977,196.513 20.996,196.378 21.513 C 196.313 21.763,196.134 21.838,195.564 21.854 C 195.162 21.866,194.758 21.894,194.667 21.917 C 194.575 21.940,194.425 21.968,194.333 21.979 C 194.242 21.991,194.167 22.150,194.167 22.333 C 194.167 22.617,194.056 22.667,193.417 22.667 C 192.787 22.667,192.667 22.718,192.667 22.988 C 192.667 23.195,192.533 23.329,192.292 23.363 C 192.051 23.398,191.898 23.551,191.863 23.792 C 191.822 24.082,191.701 24.167,191.326 24.167 C 190.993 24.167,190.756 24.297,190.569 24.582 C 190.419 24.810,190.241 24.963,190.174 24.921 C 190.106 24.879,189.951 25.030,189.830 25.256 C 189.709 25.482,189.486 25.667,189.333 25.667 C 189.180 25.667,189.047 25.760,189.038 25.875 C 189.028 25.990,188.983 26.233,188.939 26.417 C 188.895 26.600,188.853 26.798,188.846 26.856 C 188.839 26.914,188.674 27.003,188.479 27.054 C 188.206 27.125,188.142 27.242,188.203 27.558 C 188.262 27.867,188.221 27.947,188.040 27.877 C 187.684 27.740,187.505 28.145,187.503 29.097 C 187.500 29.819,187.441 29.975,187.099 30.158 C 186.706 30.369,186.698 30.419,186.675 32.784 C 186.660 34.420,186.708 35.161,186.826 35.088 C 186.922 35.029,187.000 35.060,187.000 35.157 C 187.000 35.254,186.925 35.333,186.833 35.333 C 186.503 35.333,186.676 35.678,187.083 35.833 C 187.433 35.966,187.500 36.100,187.500 36.663 C 187.500 37.222,187.555 37.333,187.833 37.333 C 188.091 37.333,188.167 37.444,188.167 37.820 C 188.167 38.415,188.316 38.833,188.528 38.833 C 188.615 38.833,188.633 38.740,188.569 38.625 C 188.488 38.483,188.507 38.469,188.628 38.583 C 188.725 38.675,188.830 38.938,188.861 39.167 C 188.899 39.450,189.037 39.600,189.292 39.637 C 189.630 39.685,189.743 39.849,189.686 40.208 C 189.676 40.277,189.812 40.333,189.989 40.333 C 190.168 40.333,190.359 40.486,190.421 40.679 C 190.481 40.869,190.570 40.986,190.618 40.937 C 190.667 40.889,190.818 40.961,190.954 41.097 C 191.157 41.300,191.252 41.306,191.476 41.134 C 191.663 40.989,191.649 41.040,191.433 41.295 C 191.258 41.499,191.164 41.676,191.224 41.688 C 191.430 41.727,192.000 41.792,192.322 41.813 C 192.520 41.825,192.664 41.977,192.697 42.208 C 192.749 42.579,192.802 42.598,193.943 42.650 C 194.217 42.663,194.281 42.746,194.215 43.000 C 194.137 43.298,194.210 43.333,194.897 43.333 C 195.610 43.333,195.752 43.429,195.690 43.865 C 195.681 43.928,197.622 43.986,200.003 43.994 C 203.675 44.007,204.333 43.973,204.333 43.769 C 204.333 43.636,204.240 43.490,204.125 43.444 C 204.010 43.397,204.355 43.354,204.891 43.346 C 205.718 43.335,205.878 43.283,205.952 43.000 C 206.028 42.707,206.410 42.566,206.893 42.653 C 207.146 42.698,207.518 42.286,207.429 42.057 C 207.371 41.905,207.483 41.833,207.775 41.833 C 208.123 41.833,208.189 41.770,208.118 41.500 C 208.038 41.192,208.238 41.073,208.708 41.147 C 208.777 41.158,208.833 40.979,208.833 40.750 C 208.833 40.417,208.917 40.333,209.250 40.333 C 209.618 40.333,209.668 40.260,209.680 39.708 C 209.687 39.365,209.731 39.177,209.777 39.292 C 209.974 39.780,210.333 39.491,210.333 38.845 C 210.333 38.293,210.392 38.181,210.707 38.137 C 211.133 38.076,211.312 37.528,210.975 37.314 C 210.808 37.209,210.804 37.171,210.958 37.169 C 211.073 37.168,211.167 37.017,211.167 36.833 C 211.167 36.650,211.223 36.509,211.292 36.520 C 211.672 36.580,211.781 36.439,211.787 35.875 C 211.813 33.721,211.822 33.667,212.153 33.667 C 212.328 33.667,212.510 33.573,212.556 33.458 C 212.628 33.281,212.735 34.317,212.711 34.958 C 212.706 35.104,213.023 35.167,213.763 35.167 C 214.634 35.167,214.806 35.122,214.727 34.918 C 214.606 34.602,214.863 34.508,215.993 34.457 C 216.805 34.421,216.915 34.372,217.018 34.000 C 217.117 33.642,217.252 33.825,217.182 34.223 C 217.168 34.299,217.309 34.402,217.495 34.450 C 217.762 34.520,217.837 34.684,217.851 35.228 C 217.884 36.517,217.904 36.582,218.292 36.637 C 218.616 36.683,218.667 36.789,218.667 37.428 C 218.667 38.056,218.717 38.167,219.000 38.167 C 219.278 38.167,219.333 38.278,219.333 38.830 C 219.333 39.399,219.393 39.509,219.750 39.598 C 220.106 39.688,220.167 39.798,220.167 40.361 C 220.167 40.758,220.233 40.979,220.333 40.917 C 220.425 40.860,220.500 40.893,220.500 40.990 C 220.500 41.099,220.004 41.167,219.200 41.167 L 217.899 41.167 217.855 42.583 L 217.811 44.000 218.239 44.000 C 218.635 44.000,218.667 44.056,218.667 44.750 C 218.667 45.389,218.716 45.500,219.000 45.500 C 219.216 45.500,219.333 45.611,219.333 45.816 C 219.333 46.411,220.491 46.459,220.748 45.875 C 220.861 45.617,221.055 45.500,221.371 45.500 C 221.650 45.500,221.912 45.369,222.039 45.167 C 222.214 44.886,222.427 44.833,223.393 44.833 C 224.422 44.833,224.531 44.802,224.459 44.528 C 224.414 44.354,224.467 44.222,224.583 44.222 C 224.700 44.222,224.753 44.354,224.707 44.530 C 224.647 44.761,224.694 44.812,224.897 44.735 C 225.045 44.678,225.167 44.489,225.167 44.316 C 225.167 44.016,225.341 44.000,228.500 44.000 L 231.833 44.000 231.833 43.333 C 231.833 42.784,231.776 42.667,231.510 42.667 C 231.248 42.667,231.176 42.531,231.135 41.958 C 231.093 41.378,231.023 41.250,230.750 41.250 C 230.507 41.249,230.416 41.137,230.413 40.833 C 230.407 40.182,230.161 39.633,229.917 39.727 C 229.783 39.778,229.656 39.646,229.592 39.390 C 229.522 39.111,229.404 39.001,229.243 39.063 C 228.998 39.157,228.927 38.869,228.993 38.048 C 229.014 37.778,228.907 37.650,228.594 37.571 C 228.216 37.476,228.167 37.379,228.167 36.732 C 228.167 36.111,228.116 36.000,227.833 36.000 C 227.603 36.000,227.496 35.884,227.486 35.625 C 227.479 35.419,227.458 35.063,227.441 34.833 C 227.410 34.435,227.445 34.419,228.204 34.474 L 229.000 34.532 229.000 35.183 C 229.000 35.780,229.113 35.921,229.542 35.853 C 229.662 35.834,229.732 36.491,229.697 37.300 C 229.688 37.510,229.790 37.724,229.923 37.775 C 230.056 37.826,230.131 37.923,230.090 37.990 C 230.048 38.056,230.124 38.111,230.257 38.111 C 230.391 38.111,230.501 38.030,230.503 37.931 C 230.504 37.828,230.564 37.843,230.641 37.965 C 230.913 38.394,234.072 38.162,234.137 37.708 C 234.186 37.364,234.277 37.333,235.262 37.333 L 236.333 37.333 236.333 36.667 C 236.333 36.116,236.277 36.000,236.006 36.000 C 235.710 36.000,235.675 35.863,235.631 34.542 C 235.586 33.173,235.560 33.080,235.208 33.030 C 234.647 32.950,234.620 29.358,235.179 29.212 C 235.446 29.142,235.502 29.032,235.426 28.727 C 235.367 28.494,235.401 28.333,235.508 28.333 C 235.685 28.333,235.710 26.343,235.539 25.872 C 235.394 25.474,229.818 25.608,229.712 26.012 C 229.647 26.260,229.480 26.333,228.981 26.333 C 228.625 26.333,228.328 26.390,228.322 26.458 C 228.316 26.527,228.284 26.785,228.251 27.032 C 228.188 27.504,228.532 27.936,228.826 27.755 C 228.930 27.691,229.000 27.820,229.000 28.073 C 229.000 28.389,229.087 28.500,229.333 28.500 C 229.617 28.500,229.667 28.611,229.667 29.250 L 229.667 30.000 228.472 30.000 C 227.815 30.000,227.327 29.951,227.387 29.890 C 227.608 29.670,227.111 29.333,226.563 29.333 L 226.000 29.333 225.986 27.792 C 225.962 24.946,225.958 24.923,225.542 24.863 C 224.936 24.777,224.960 21.833,225.567 21.833 C 225.959 21.833,225.968 21.802,225.972 20.375 C 225.979 18.086,225.966 18.167,226.333 18.167 C 226.617 18.167,226.667 18.056,226.667 17.417 C 226.667 16.786,226.718 16.667,226.989 16.667 C 227.166 16.667,227.358 16.517,227.417 16.333 C 227.477 16.143,227.669 16.000,227.864 16.000 C 228.138 16.000,228.190 15.918,228.126 15.583 L 228.046 15.167 229.700 15.167 C 230.806 15.167,231.317 15.224,231.245 15.341 C 231.046 15.664,231.531 16.000,232.197 16.000 C 232.592 16.000,232.812 16.066,232.750 16.167 C 232.693 16.258,232.726 16.333,232.823 16.333 C 232.921 16.333,233.000 16.431,233.000 16.551 C 233.000 16.679,232.812 16.765,232.542 16.759 C 232.190 16.752,232.071 16.837,232.030 17.125 C 231.984 17.449,231.877 17.500,231.238 17.500 C 230.611 17.500,230.500 17.550,230.500 17.833 C 230.500 18.136,230.229 18.230,229.568 18.156 C 229.354 18.131,229.010 18.775,229.005 19.208 C 229.001 19.549,228.917 19.667,228.677 19.667 C 228.261 19.667,228.056 19.994,228.354 20.183 C 228.528 20.293,228.532 20.329,228.369 20.331 C 227.925 20.336,228.175 23.906,228.625 23.970 C 228.896 24.008,229.000 24.135,229.000 24.428 C 229.000 24.827,229.023 24.833,230.500 24.833 C 231.695 24.833,232.000 24.882,232.000 25.073 C 232.000 25.206,232.088 25.368,232.195 25.434 C 232.325 25.515,232.355 25.464,232.286 25.283 C 232.228 25.133,232.255 24.965,232.345 24.910 C 232.435 24.854,232.498 24.870,232.484 24.946 C 232.404 25.407,232.547 25.500,233.333 25.500 C 234.056 25.500,234.167 25.456,234.167 25.167 C 234.167 24.808,233.899 24.834,237.917 24.806 C 238.602 24.801,238.992 24.717,239.158 24.538 C 239.372 24.306,239.356 24.289,239.009 24.379 C 238.732 24.452,238.670 24.430,238.797 24.303 C 238.895 24.205,239.395 24.078,239.909 24.021 C 240.423 23.964,240.841 23.860,240.838 23.792 C 240.836 23.723,240.833 23.592,240.833 23.500 C 240.833 23.408,240.992 23.333,241.186 23.333 C 241.451 23.333,241.518 23.254,241.456 23.017 C 241.393 22.774,241.483 22.678,241.846 22.606 L 242.319 22.511 242.309 20.547 C 242.300 18.653,242.171 18.140,241.712 18.167 C 241.641 18.171,241.546 17.834,241.500 17.417 C 241.454 17.000,241.360 16.660,241.292 16.663 C 241.223 16.665,241.092 16.667,241.000 16.667 C 240.908 16.667,240.833 16.517,240.833 16.333 C 240.833 16.091,240.722 16.000,240.428 16.000 C 240.135 16.000,240.008 15.896,239.970 15.625 C 239.941 15.419,239.804 15.250,239.667 15.250 C 239.529 15.250,239.393 15.081,239.363 14.875 C 239.317 14.551,239.211 14.500,238.572 14.500 C 237.853 14.500,237.721 14.377,237.814 13.792 C 237.847 13.579,237.366 13.654,237.277 13.875 C 237.210 14.042,237.190 14.042,237.180 13.875 C 237.173 13.760,236.979 13.667,236.750 13.667 C 236.444 13.667,236.333 13.578,236.333 13.333 C 236.333 13.025,236.222 13.000,234.833 13.000 C 233.444 13.000,233.333 12.975,233.333 12.667 C 233.333 12.340,233.222 12.333,227.500 12.333 C 224.292 12.333,221.676 12.390,221.686 12.458 M165.333 13.250 C 165.163 13.455,165.175 13.500,165.396 13.500 C 165.545 13.500,165.667 13.387,165.667 13.250 C 165.667 13.112,165.638 13.000,165.604 13.000 C 165.569 13.000,165.447 13.112,165.333 13.250 M136.708 13.779 C 136.306 13.862,136.199 14.252,136.542 14.390 C 136.656 14.436,135.794 14.480,134.625 14.487 C 132.615 14.499,132.500 14.518,132.500 14.833 C 132.500 15.144,132.384 15.168,130.792 15.182 C 128.068 15.206,128.090 15.203,128.030 15.625 C 127.979 15.988,127.918 16.000,126.149 16.000 L 124.322 16.000 124.369 17.792 C 124.413 19.456,124.440 19.583,124.750 19.583 C 124.963 19.583,125.102 19.711,125.134 19.938 C 125.181 20.265,125.293 20.295,126.526 20.318 C 128.029 20.345,128.833 20.837,128.833 21.728 C 128.833 21.974,128.988 22.256,129.208 22.410 C 129.442 22.574,129.591 22.860,129.604 23.170 C 129.638 23.972,129.651 24.000,130.000 24.000 C 130.296 24.000,130.333 24.111,130.333 24.980 C 130.333 25.900,130.605 26.506,130.890 26.221 C 130.951 26.160,131.000 26.653,131.000 27.315 C 131.000 28.076,131.061 28.482,131.167 28.417 C 131.258 28.360,131.333 28.393,131.333 28.490 C 131.333 28.587,131.258 28.667,131.167 28.667 C 130.837 28.667,131.009 29.012,131.417 29.167 L 131.833 29.325 131.833 32.246 C 131.833 35.056,131.846 35.167,132.167 35.167 C 132.481 35.167,132.500 35.278,132.500 37.083 C 132.500 38.882,132.480 39.000,132.170 39.000 C 131.852 39.000,131.841 39.125,131.840 42.653 L 131.840 46.306 132.878 46.278 C 133.818 46.253,133.922 46.214,133.970 45.875 C 134.022 45.507,134.696 45.371,135.875 45.491 C 136.068 45.511,136.167 45.405,136.167 45.177 C 136.167 44.822,136.268 44.803,138.256 44.785 C 138.764 44.781,139.110 44.560,139.093 44.250 C 139.087 44.158,139.622 44.062,140.292 44.034 C 141.472 43.987,141.500 43.995,141.500 44.389 C 141.500 44.812,142.613 44.970,143.880 44.727 L 144.343 44.638 144.297 42.527 C 144.253 40.540,144.231 40.417,143.917 40.426 C 143.622 40.434,143.587 40.337,143.616 39.592 C 143.673 38.131,143.722 38.167,141.655 38.167 L 139.833 38.167 139.833 37.750 C 139.833 37.414,139.916 37.333,140.262 37.333 C 140.672 37.333,140.690 37.294,140.665 36.458 C 140.594 34.120,140.648 33.667,140.996 33.667 C 141.317 33.667,141.324 33.545,141.287 28.542 C 141.260 24.769,141.199 23.417,141.056 23.417 C 140.692 23.417,140.649 23.206,140.653 21.436 L 140.656 19.667 140.245 19.667 C 139.815 19.667,139.755 19.394,139.819 17.750 C 139.846 17.076,139.568 16.646,139.336 17.000 C 139.218 17.179,139.171 16.979,139.169 16.292 C 139.168 15.765,139.092 15.324,139.000 15.313 C 138.908 15.301,138.740 15.282,138.625 15.271 C 138.510 15.259,138.379 14.950,138.333 14.583 C 138.283 14.183,138.150 13.891,138.000 13.852 C 137.515 13.727,137.079 13.702,136.708 13.779 M261.833 16.901 C 261.738 16.996,261.667 18.103,261.667 19.492 L 261.667 21.917 261.125 21.888 C 260.827 21.872,260.272 21.853,259.891 21.846 C 259.283 21.835,259.209 21.793,259.285 21.500 C 259.363 21.202,259.290 21.167,258.603 21.167 C 258.180 21.167,257.824 21.092,257.813 21.000 C 257.801 20.908,257.782 20.740,257.771 20.625 C 257.747 20.388,256.819 20.259,256.220 20.409 C 256.000 20.465,255.865 20.583,255.920 20.672 C 255.975 20.761,255.940 20.833,255.843 20.833 C 255.739 20.833,255.667 21.235,255.667 21.815 C 255.667 22.647,255.622 22.793,255.375 22.773 C 255.111 22.752,255.079 22.991,255.033 25.292 L 254.982 27.833 257.774 27.833 C 259.946 27.833,260.522 27.878,260.367 28.033 C 260.257 28.143,260.161 28.425,260.154 28.658 C 260.146 28.892,260.103 28.990,260.056 28.875 C 259.771 28.168,259.333 29.014,259.333 30.271 C 259.333 30.729,259.269 30.833,258.987 30.833 C 258.702 30.833,258.646 30.928,258.671 31.375 C 258.718 32.241,258.686 32.333,258.333 32.333 C 258.035 32.333,258.000 32.444,258.000 33.389 C 258.000 34.340,257.959 34.465,257.589 34.664 C 257.363 34.785,257.218 34.948,257.267 35.028 C 257.316 35.107,257.438 35.122,257.537 35.060 C 257.646 34.993,257.670 35.026,257.598 35.144 C 257.531 35.251,257.410 35.297,257.328 35.247 C 257.242 35.194,257.182 36.713,257.186 38.827 C 257.190 40.934,257.258 42.509,257.347 42.521 C 257.431 42.532,257.594 42.551,257.708 42.563 C 257.823 42.574,257.941 42.752,257.970 42.958 C 258.003 43.190,258.139 43.333,258.325 43.333 C 258.492 43.333,258.667 43.483,258.715 43.667 C 258.763 43.850,258.914 44.000,259.050 44.000 C 259.186 44.000,259.344 44.188,259.402 44.417 C 259.491 44.771,259.602 44.833,260.150 44.833 C 260.657 44.833,260.813 44.905,260.883 45.171 C 260.932 45.357,261.034 45.499,261.111 45.485 C 262.379 45.262,264.667 45.536,264.667 45.910 L 264.667 46.321 268.708 46.318 C 272.672 46.315,273.461 46.221,273.488 45.750 C 273.493 45.658,274.004 45.564,274.623 45.541 C 276.081 45.486,276.500 45.383,276.500 45.080 C 276.500 44.909,276.679 44.833,277.083 44.833 C 277.404 44.833,277.667 44.749,277.667 44.646 C 277.667 44.516,277.742 44.522,277.915 44.665 C 278.247 44.940,278.667 44.758,278.667 44.339 C 278.667 43.991,278.791 43.939,279.481 43.996 C 279.930 44.034,280.259 43.662,279.950 43.465 C 279.832 43.390,279.949 43.337,280.236 43.336 C 280.503 43.334,280.674 43.285,280.614 43.225 C 280.497 43.108,281.125 42.500,281.363 42.500 C 281.443 42.500,281.581 42.308,281.670 42.073 C 281.760 41.839,281.903 41.690,281.988 41.743 C 282.074 41.796,282.191 41.763,282.248 41.669 C 282.306 41.576,282.255 41.499,282.135 41.497 C 281.958 41.495,281.959 41.468,282.139 41.354 C 282.262 41.276,282.355 41.165,282.348 41.106 C 282.276 40.569,282.369 40.333,282.653 40.333 C 282.828 40.333,283.010 40.240,283.056 40.125 C 283.157 39.875,283.208 40.482,283.169 41.467 C 283.153 41.862,283.235 42.298,283.351 42.438 C 283.518 42.639,283.519 42.719,283.356 42.819 C 283.198 42.917,283.207 42.993,283.395 43.149 C 283.592 43.312,283.654 43.294,283.717 43.051 C 283.760 42.885,283.813 43.069,283.835 43.458 C 283.857 43.848,283.894 44.242,283.917 44.333 C 283.940 44.425,283.968 44.575,283.979 44.667 C 283.991 44.758,284.150 44.833,284.333 44.833 C 284.519 44.833,284.667 44.944,284.667 45.083 C 284.667 45.221,284.760 45.334,284.875 45.336 C 285.015 45.338,285.001 45.393,284.833 45.506 C 284.621 45.648,284.646 45.726,285.000 46.022 C 285.229 46.214,285.417 46.448,285.417 46.542 C 285.417 46.681,285.675 46.884,286.138 47.110 C 286.167 47.124,286.212 47.274,286.237 47.443 C 286.263 47.619,286.417 47.749,286.599 47.748 C 286.774 47.747,286.993 47.897,287.087 48.082 C 287.193 48.290,287.460 48.436,287.795 48.469 C 288.240 48.512,288.333 48.592,288.333 48.927 C 288.333 49.249,288.420 49.333,288.750 49.333 C 289.048 49.333,289.167 49.423,289.167 49.650 C 289.167 49.918,289.282 49.963,289.917 49.942 C 290.640 49.918,290.769 50.019,290.686 50.542 C 290.676 50.610,292.804 50.667,295.417 50.667 C 300.056 50.667,300.167 50.659,300.167 50.333 C 300.167 50.150,300.223 49.994,300.292 49.986 C 300.360 49.979,300.631 49.957,300.893 49.938 C 301.155 49.920,301.461 49.779,301.573 49.626 C 301.685 49.473,302.047 49.329,302.377 49.307 C 302.708 49.285,302.941 49.207,302.896 49.133 C 302.851 49.060,302.893 49.000,302.990 49.000 C 303.087 49.000,303.167 48.893,303.167 48.761 C 303.167 48.630,303.322 48.473,303.512 48.413 C 303.720 48.347,303.821 48.210,303.767 48.068 C 303.702 47.899,303.815 47.833,304.172 47.833 C 304.589 47.833,304.667 47.768,304.667 47.417 C 304.667 47.116,304.756 47.000,304.988 47.000 C 305.195 47.000,305.329 46.866,305.363 46.625 C 305.393 46.419,305.504 46.250,305.611 46.250 C 305.835 46.250,306.074 46.042,306.104 45.819 C 306.116 45.735,306.134 45.600,306.146 45.519 C 306.157 45.437,306.298 45.381,306.458 45.394 C 306.619 45.406,306.760 45.304,306.772 45.167 C 306.785 45.029,306.804 44.814,306.814 44.688 C 306.829 44.513,306.887 44.504,307.062 44.649 C 307.329 44.871,307.774 44.019,307.612 43.597 C 307.550 43.437,307.642 43.336,307.881 43.302 C 308.172 43.260,308.254 43.122,308.293 42.607 C 308.325 42.188,308.469 41.860,308.705 41.669 C 308.931 41.486,309.081 41.161,309.100 40.812 C 309.117 40.503,309.139 40.124,309.149 39.970 C 309.159 39.815,309.317 39.642,309.500 39.583 C 309.683 39.525,309.833 39.333,309.833 39.155 C 309.833 38.862,309.969 38.832,311.375 38.814 C 313.438 38.788,313.420 38.792,313.394 38.458 C 313.374 38.214,313.515 38.167,314.250 38.167 C 314.985 38.167,315.126 38.214,315.106 38.458 C 315.092 38.643,315.221 38.769,315.458 38.803 C 315.730 38.842,315.833 38.968,315.833 39.262 C 315.833 39.547,315.926 39.667,316.147 39.667 C 316.321 39.667,316.500 39.816,316.548 40.000 C 316.600 40.199,316.776 40.333,316.984 40.333 C 317.227 40.333,317.333 40.439,317.333 40.682 C 317.333 40.891,317.467 41.066,317.667 41.118 C 317.970 41.198,318.073 41.370,318.020 41.708 C 318.009 41.777,318.068 41.833,318.151 41.833 C 318.234 41.833,318.268 41.965,318.226 42.125 C 318.177 42.314,318.286 42.478,318.534 42.589 C 318.744 42.684,318.898 42.853,318.875 42.964 C 318.837 43.148,318.920 43.186,319.292 43.157 C 319.360 43.151,319.457 43.317,319.506 43.526 C 319.559 43.751,319.762 43.944,320.006 44.002 C 320.298 44.072,320.411 44.206,320.397 44.467 C 320.383 44.721,320.472 44.833,320.688 44.833 C 320.889 44.833,321.000 44.952,321.000 45.167 C 321.000 45.411,321.111 45.500,321.417 45.500 C 321.780 45.500,321.833 45.573,321.833 46.074 C 321.833 46.480,321.943 46.725,322.208 46.910 C 322.415 47.055,322.593 47.247,322.604 47.337 C 322.616 47.426,322.634 47.575,322.646 47.667 C 322.657 47.758,322.723 47.824,322.792 47.814 C 323.101 47.765,323.563 47.868,323.375 47.944 C 323.154 48.033,323.079 48.514,323.292 48.480 C 323.735 48.410,324.000 48.539,324.000 48.823 C 324.000 49.001,324.079 49.196,324.175 49.255 C 324.294 49.329,324.288 49.437,324.154 49.598 C 323.966 49.825,324.112 49.921,324.542 49.853 C 324.610 49.842,324.675 50.002,324.686 50.208 C 324.696 50.415,324.717 50.696,324.732 50.833 C 324.777 51.253,324.490 51.698,324.237 51.601 C 324.072 51.538,324.000 51.635,324.000 51.922 C 324.000 52.255,323.916 52.333,323.564 52.333 C 323.210 52.333,323.144 52.396,323.215 52.667 C 323.263 52.850,323.234 53.000,323.151 53.000 C 323.068 53.000,322.857 53.143,322.682 53.318 C 322.508 53.492,322.076 53.677,321.724 53.728 C 321.372 53.779,321.065 53.824,321.042 53.827 C 321.019 53.831,321.000 53.983,321.000 54.167 C 321.000 54.422,320.889 54.500,320.523 54.500 C 320.104 54.500,320.056 54.449,320.126 54.083 C 320.184 53.778,320.311 53.667,320.603 53.667 C 320.821 53.667,320.991 53.610,320.980 53.542 C 320.926 53.201,321.029 53.013,321.319 52.921 C 321.824 52.761,321.840 48.744,321.336 48.584 C 321.151 48.526,321.000 48.333,321.000 48.155 C 321.000 47.923,320.884 47.833,320.583 47.833 C 320.272 47.833,320.167 47.745,320.167 47.484 C 320.167 47.281,320.034 47.101,319.849 47.052 C 319.674 47.007,319.492 46.820,319.444 46.638 C 319.385 46.413,319.233 46.317,318.970 46.338 C 317.713 46.442,317.197 46.339,317.285 46.000 C 317.370 45.673,317.290 45.667,313.364 45.667 C 309.502 45.667,309.352 45.679,309.250 46.000 C 309.149 46.318,308.752 46.423,307.958 46.342 C 307.749 46.321,307.667 46.433,307.667 46.740 C 307.667 47.047,307.579 47.167,307.353 47.167 C 306.923 47.167,306.859 47.610,306.854 50.625 C 306.852 52.490,306.904 53.167,307.050 53.169 C 307.172 53.171,307.152 53.235,307.000 53.333 C 306.862 53.422,306.806 53.505,306.875 53.518 C 306.944 53.531,307.075 53.560,307.167 53.583 C 307.258 53.606,307.408 53.634,307.500 53.646 C 307.592 53.657,307.667 54.004,307.667 54.417 C 307.667 55.056,307.716 55.167,308.000 55.167 C 308.183 55.167,308.333 55.247,308.333 55.345 C 308.333 55.577,308.783 56.026,308.952 55.964 C 309.024 55.938,309.108 56.093,309.139 56.308 C 309.187 56.648,309.270 56.691,309.764 56.633 C 310.077 56.597,310.333 56.627,310.333 56.700 C 310.333 56.773,310.258 56.833,310.167 56.833 C 309.595 56.833,310.092 57.321,310.708 57.365 C 311.098 57.394,311.412 57.492,311.407 57.583 C 311.398 57.759,311.692 58.137,311.833 58.131 C 313.089 58.074,313.667 58.190,313.667 58.500 C 313.667 58.683,313.723 58.824,313.792 58.814 C 314.702 58.670,315.770 58.868,315.919 59.208 C 316.090 59.599,316.242 59.623,318.708 59.656 C 319.385 59.665,319.500 59.715,319.500 60.000 C 319.500 60.323,319.611 60.333,323.174 60.333 C 326.581 60.333,326.844 60.312,326.799 60.042 C 326.758 59.795,326.919 59.737,327.833 59.667 C 328.755 59.596,328.941 59.527,329.081 59.208 C 329.172 59.002,329.378 58.833,329.540 58.833 C 329.722 58.833,329.833 58.707,329.833 58.500 C 329.833 58.256,329.944 58.167,330.250 58.167 C 330.583 58.167,330.667 58.083,330.667 57.750 C 330.667 57.444,330.756 57.333,331.000 57.333 C 331.222 57.333,331.333 57.222,331.333 57.000 C 331.333 56.756,331.444 56.667,331.750 56.667 C 332.051 56.667,332.167 56.577,332.167 56.345 C 332.167 56.167,332.317 55.975,332.500 55.917 C 332.683 55.858,332.833 55.684,332.833 55.529 C 332.833 55.374,332.983 55.153,333.167 55.039 C 333.397 54.895,333.500 54.650,333.500 54.249 C 333.500 53.734,333.550 53.667,333.929 53.667 C 334.332 53.667,334.356 53.622,334.307 52.958 C 334.261 52.334,334.299 52.244,334.628 52.197 C 334.949 52.151,335.000 52.042,335.000 51.405 C 335.000 50.745,335.041 50.667,335.384 50.667 C 335.717 50.667,335.774 50.574,335.809 49.968 C 335.837 49.498,335.957 49.195,336.175 49.042 C 336.429 48.864,336.500 48.617,336.500 47.907 C 336.500 47.044,336.521 47.000,336.929 47.000 C 337.294 47.000,337.354 46.931,337.328 46.542 C 337.271 45.673,337.327 45.500,337.667 45.500 C 337.951 45.500,338.000 45.389,338.000 44.750 C 338.000 44.111,338.049 44.000,338.333 44.000 C 338.517 44.000,338.676 43.925,338.688 43.833 C 338.699 43.742,338.727 43.517,338.750 43.333 C 338.773 43.150,338.801 42.934,338.813 42.853 C 338.824 42.772,338.983 42.666,339.167 42.618 C 339.432 42.549,339.500 42.391,339.500 41.849 C 339.500 41.207,339.529 41.167,339.984 41.167 C 340.382 41.167,340.454 41.225,340.384 41.490 C 340.310 41.772,340.387 41.812,340.991 41.803 C 341.905 41.791,341.878 41.728,341.845 43.742 C 341.819 45.412,341.834 45.500,342.159 45.500 C 342.412 45.500,342.500 45.608,342.500 45.917 C 342.500 46.168,342.595 46.333,342.740 46.333 C 342.872 46.333,343.022 46.401,343.074 46.484 C 343.125 46.568,342.998 46.595,342.792 46.545 C 342.489 46.472,342.456 46.497,342.619 46.671 C 342.798 46.864,343.078 46.939,343.792 46.986 C 343.906 46.994,344.000 47.142,344.000 47.316 C 344.000 47.702,344.168 47.766,345.328 47.820 C 345.982 47.850,346.298 47.946,346.449 48.162 C 346.625 48.413,346.925 48.466,348.280 48.487 C 350.168 48.515,349.992 48.435,350.156 49.333 C 350.165 49.379,350.244 49.304,350.333 49.167 C 350.434 49.011,350.496 48.993,350.497 49.119 C 350.499 49.242,350.741 49.315,351.125 49.308 C 352.760 49.274,353.000 49.320,353.000 49.667 C 353.000 49.889,353.111 50.000,353.333 50.000 C 353.524 50.000,353.667 50.111,353.667 50.260 C 353.667 50.403,353.733 50.479,353.814 50.428 C 354.026 50.298,354.276 50.662,354.412 51.300 C 354.477 51.602,354.673 51.939,354.848 52.048 C 355.090 52.199,355.167 52.440,355.167 53.050 C 355.167 53.565,355.104 53.814,354.993 53.745 C 354.666 53.544,354.362 54.013,354.363 54.717 C 354.365 55.947,354.350 56.000,353.982 56.000 C 353.742 56.000,353.661 56.077,353.725 56.245 C 353.817 56.486,353.575 56.742,353.250 56.747 C 353.158 56.749,353.060 56.913,353.032 57.111 C 352.969 57.555,352.057 57.631,348.447 57.493 C 347.012 57.438,346.566 57.389,347.311 57.368 C 348.449 57.336,348.532 57.309,348.452 57.000 C 348.375 56.707,348.447 56.667,349.043 56.667 C 349.417 56.667,349.676 56.620,349.619 56.563 C 349.510 56.455,349.963 55.931,350.196 55.896 C 350.272 55.884,350.402 55.866,350.485 55.854 C 350.568 55.843,350.645 54.858,350.656 53.667 L 350.675 51.500 350.254 51.500 C 349.937 51.500,349.833 51.413,349.833 51.147 C 349.833 50.891,349.752 50.816,349.537 50.872 C 349.374 50.915,349.146 50.848,349.030 50.725 C 348.861 50.544,348.862 50.499,349.035 50.493 C 349.153 50.490,349.039 50.372,348.782 50.233 C 348.524 50.093,348.149 49.992,347.948 50.008 C 346.732 50.105,346.037 49.995,346.060 49.708 C 346.082 49.440,345.826 49.417,342.833 49.417 C 340.468 49.417,339.583 49.470,339.583 49.611 C 339.583 49.936,339.369 50.048,338.712 50.066 C 338.193 50.080,338.074 50.149,338.030 50.458 C 337.996 50.699,337.862 50.833,337.655 50.833 C 337.157 50.833,337.156 55.915,337.655 56.045 C 337.876 56.103,337.993 56.304,338.030 56.690 C 338.070 57.111,338.170 57.262,338.435 57.300 C 338.628 57.328,338.883 57.531,339.002 57.753 C 339.120 57.974,339.282 58.115,339.361 58.066 C 339.441 58.017,339.472 57.922,339.430 57.856 C 339.389 57.789,339.429 57.625,339.518 57.492 C 339.659 57.282,339.677 57.284,339.654 57.500 C 339.599 58.017,339.676 58.167,340.000 58.167 C 340.222 58.167,340.333 58.278,340.333 58.500 C 340.333 58.781,340.444 58.833,341.044 58.833 C 341.621 58.833,341.785 58.904,341.919 59.208 C 342.081 59.577,342.139 59.593,343.530 59.649 C 343.821 59.660,344.014 59.783,344.083 60.000 C 344.142 60.183,344.264 60.333,344.354 60.333 C 344.445 60.333,344.467 60.240,344.402 60.125 C 344.308 59.958,344.329 59.958,344.509 60.125 C 344.652 60.257,345.245 60.333,346.139 60.333 C 347.424 60.333,347.578 60.369,347.930 60.749 L 348.316 61.165 353.783 61.124 L 359.250 61.083 359.415 60.708 C 359.557 60.383,359.704 60.333,360.519 60.333 C 361.402 60.333,362.000 60.056,361.721 59.776 C 361.616 59.671,361.732 59.650,362.667 59.604 C 362.923 59.591,363.145 59.443,363.243 59.219 C 363.331 59.018,363.538 58.819,363.702 58.776 C 363.866 58.733,364.000 58.578,364.000 58.432 C 364.000 58.278,364.139 58.167,364.333 58.167 C 364.578 58.167,364.667 58.056,364.667 57.750 C 364.667 57.417,364.750 57.333,365.083 57.333 C 365.312 57.333,365.491 57.277,365.480 57.208 C 365.416 56.804,365.520 55.836,365.625 55.853 C 366.143 55.935,366.167 55.809,366.167 52.981 C 366.167 50.210,366.157 50.130,365.833 50.215 C 365.650 50.263,365.491 50.234,365.479 50.151 C 365.468 50.068,365.440 49.925,365.417 49.833 C 365.394 49.742,365.366 49.602,365.354 49.523 C 365.343 49.444,365.165 49.378,364.958 49.376 C 364.113 49.370,364.000 49.326,364.000 49.000 C 364.000 48.817,363.944 48.656,363.875 48.644 C 363.720 48.616,362.705 48.537,362.228 48.516 C 362.021 48.507,361.836 48.361,361.785 48.167 C 361.706 47.866,361.558 47.833,360.266 47.833 C 359.119 47.833,358.833 47.785,358.833 47.589 C 358.833 47.185,358.295 47.020,356.861 46.986 C 355.797 46.960,355.536 46.908,355.670 46.746 C 355.793 46.598,355.769 46.511,355.588 46.441 C 355.428 46.380,355.333 46.439,355.333 46.598 C 355.333 46.738,355.257 46.806,355.164 46.748 C 355.071 46.691,355.038 46.574,355.090 46.488 C 355.145 46.401,354.821 46.333,354.343 46.333 C 353.879 46.333,353.509 46.277,353.520 46.208 C 353.587 45.779,353.447 45.667,352.845 45.667 C 352.293 45.667,352.181 45.608,352.137 45.292 C 352.103 45.054,351.976 44.925,351.792 44.940 C 351.388 44.972,351.427 44.850,351.875 44.680 C 352.249 44.539,352.249 44.538,351.792 44.326 C 351.138 44.023,351.065 41.228,351.708 41.137 C 351.949 41.102,352.102 40.949,352.137 40.708 C 352.171 40.467,352.305 40.333,352.512 40.333 C 352.722 40.333,352.833 40.218,352.833 40.000 C 352.833 39.679,352.944 39.667,355.833 39.667 C 358.693 39.667,358.833 39.682,358.833 39.990 C 358.833 40.252,358.698 40.324,358.125 40.365 C 357.536 40.408,357.408 40.480,357.363 40.792 C 357.315 41.130,357.151 41.243,356.792 41.186 C 356.723 41.176,356.667 41.311,356.667 41.488 C 356.667 41.695,356.533 41.829,356.292 41.863 C 355.709 41.946,355.710 45.159,356.293 45.415 C 356.500 45.506,356.712 45.712,356.763 45.874 C 356.814 46.035,356.934 46.167,357.029 46.167 C 357.124 46.167,357.158 46.050,357.103 45.908 C 357.046 45.760,357.074 45.693,357.169 45.751 C 357.259 45.807,357.333 45.956,357.333 46.082 C 357.333 46.249,357.551 46.303,358.136 46.281 C 358.885 46.252,358.933 46.275,358.866 46.625 C 358.796 46.992,358.828 47.000,360.314 47.000 C 361.694 47.000,361.833 47.029,361.833 47.316 C 361.833 47.763,362.060 47.810,364.251 47.810 C 366.316 47.810,367.141 47.621,366.812 47.224 C 366.638 47.015,367.020 46.892,367.554 46.984 C 367.630 46.998,367.653 46.947,367.607 46.871 C 367.496 46.693,367.668 46.462,368.083 46.232 C 368.467 46.020,368.682 42.833,368.312 42.833 C 368.213 42.833,368.178 42.712,368.235 42.563 C 368.300 42.393,368.180 42.146,367.910 41.896 C 367.674 41.677,367.527 41.424,367.584 41.333 C 367.640 41.241,367.532 41.167,367.343 41.167 C 367.088 41.167,367.000 41.060,367.000 40.750 C 367.000 40.417,366.917 40.333,366.583 40.333 C 366.278 40.333,366.167 40.244,366.167 40.000 C 366.167 39.716,366.056 39.667,365.417 39.667 C 364.778 39.667,364.667 39.617,364.667 39.333 C 364.667 39.035,364.556 39.000,363.601 39.000 C 362.605 39.000,362.529 38.973,362.432 38.584 C 362.335 38.200,362.257 38.170,361.403 38.190 C 360.635 38.207,360.437 38.151,360.230 37.855 C 360.005 37.533,359.826 37.500,358.335 37.500 C 356.832 37.500,356.680 37.471,356.583 37.164 C 356.524 36.980,356.406 36.872,356.321 36.924 C 356.236 36.977,356.167 36.945,356.167 36.855 C 356.167 36.751,354.872 36.692,352.668 36.696 C 350.744 36.699,349.205 36.761,349.249 36.832 C 349.294 36.904,349.216 37.056,349.078 37.171 C 348.868 37.346,348.843 37.335,348.931 37.107 C 348.988 36.956,348.958 36.833,348.862 36.833 C 348.767 36.833,348.642 36.983,348.583 37.167 C 348.492 37.454,348.331 37.500,347.405 37.500 C 346.383 37.500,346.239 37.572,346.314 38.042 C 346.330 38.147,345.363 38.250,344.958 38.186 C 344.890 38.176,344.833 38.346,344.833 38.564 C 344.833 38.872,344.730 38.976,344.375 39.024 C 343.571 39.133,343.167 39.004,343.167 38.639 C 343.167 38.442,343.028 38.266,342.833 38.215 C 342.649 38.167,342.500 37.988,342.500 37.814 C 342.500 37.590,342.380 37.500,342.083 37.500 C 341.774 37.500,341.667 37.412,341.667 37.157 C 341.667 36.968,341.592 36.860,341.500 36.917 C 341.408 36.973,341.333 36.940,341.333 36.843 C 341.333 36.746,341.221 36.667,341.083 36.667 C 340.946 36.667,340.842 36.610,340.853 36.542 C 340.921 36.111,340.826 35.920,340.667 36.167 C 340.559 36.333,340.504 36.347,340.503 36.208 C 340.501 36.089,340.288 36.000,340.000 36.000 C 339.582 36.000,339.500 35.934,339.500 35.595 C 339.500 35.302,339.396 35.175,339.125 35.137 C 338.919 35.107,338.750 34.971,338.750 34.833 C 338.750 34.577,338.691 34.557,337.833 34.521 C 337.558 34.509,337.333 34.420,337.333 34.321 C 337.333 33.924,336.913 33.667,336.261 33.667 C 336.002 33.667,335.818 33.546,335.750 33.333 C 335.665 33.065,335.498 33.000,334.896 33.000 C 334.484 33.000,334.188 32.933,334.238 32.852 C 334.435 32.534,333.831 32.334,332.726 32.351 C 331.712 32.367,331.565 32.408,331.544 32.688 C 331.531 32.864,331.575 32.973,331.643 32.931 C 331.711 32.889,331.875 32.929,332.008 33.018 C 332.218 33.159,332.216 33.177,332.000 33.154 C 331.516 33.102,331.333 33.169,331.333 33.397 C 331.333 33.524,331.183 33.667,331.000 33.715 C 330.817 33.763,330.667 33.928,330.667 34.083 C 330.667 34.237,330.504 34.495,330.305 34.656 C 330.009 34.896,329.931 35.167,329.877 36.141 L 329.812 37.333 330.561 37.333 C 331.211 37.333,331.317 37.383,331.363 37.708 C 331.412 38.052,331.526 38.090,332.703 38.167 C 333.795 38.237,333.966 38.288,333.831 38.500 C 333.743 38.637,333.671 38.951,333.669 39.197 C 333.667 39.532,333.573 39.657,333.292 39.697 C 333.085 39.726,332.917 39.862,332.917 40.000 C 332.917 40.255,332.609 40.667,332.419 40.667 C 332.361 40.667,332.368 40.573,332.434 40.458 C 332.499 40.344,332.489 40.308,332.411 40.380 C 332.332 40.451,332.251 40.628,332.230 40.772 C 332.208 40.917,332.039 41.142,331.852 41.272 C 331.666 41.403,331.464 41.770,331.405 42.088 C 331.326 42.506,331.209 42.667,330.981 42.667 C 330.778 42.667,330.667 42.784,330.667 43.000 C 330.667 43.183,330.586 43.333,330.488 43.333 C 330.274 43.333,329.902 43.684,329.870 43.917 C 329.818 44.288,329.193 44.190,329.138 43.802 C 329.102 43.551,328.953 43.398,328.708 43.363 C 328.406 43.320,328.333 43.204,328.333 42.759 C 328.333 42.221,327.995 41.727,327.776 41.946 C 327.716 42.006,327.667 41.856,327.667 41.611 C 327.667 41.248,327.590 41.167,327.250 41.167 C 326.867 41.167,326.833 41.106,326.833 40.417 C 326.833 39.778,326.784 39.667,326.500 39.667 C 326.215 39.667,326.167 39.556,326.167 38.897 C 326.167 38.189,326.137 38.133,325.792 38.199 C 325.433 38.267,325.416 38.221,325.412 37.135 L 325.408 36.000 326.537 35.979 C 327.159 35.968,327.742 35.940,327.833 35.917 C 327.925 35.894,328.075 35.866,328.167 35.854 C 328.410 35.824,328.374 33.777,328.125 33.509 C 327.958 33.329,327.958 33.308,328.125 33.402 C 328.240 33.467,328.333 33.445,328.333 33.354 C 328.333 33.264,328.183 33.142,328.000 33.083 C 327.732 32.998,327.667 32.831,327.667 32.230 L 327.667 31.483 326.167 31.513 C 324.914 31.539,324.665 31.588,324.655 31.814 C 324.645 32.034,324.622 32.028,324.523 31.779 C 324.415 31.505,324.380 31.518,324.174 31.904 C 323.944 32.332,323.939 32.333,321.722 32.333 C 319.611 32.333,319.500 32.350,319.500 32.667 C 319.500 32.990,319.380 33.001,315.458 33.025 C 313.235 33.039,311.342 33.068,311.250 33.089 C 311.158 33.111,311.000 33.137,310.898 33.147 C 310.783 33.159,310.701 33.679,310.681 34.537 C 310.627 36.743,310.500 36.255,310.500 33.846 C 310.500 31.776,310.479 31.630,310.167 31.548 C 309.836 31.462,309.768 31.262,309.827 30.542 C 309.856 30.181,309.755 30.120,309.129 30.122 C 308.970 30.122,308.883 30.054,308.935 29.971 C 309.098 29.706,308.644 29.333,308.158 29.333 C 307.799 29.333,307.677 29.246,307.637 28.958 C 307.592 28.643,307.465 28.575,306.841 28.530 C 306.339 28.495,306.026 28.373,305.873 28.155 C 305.671 27.866,305.435 27.833,303.579 27.833 C 301.933 27.833,301.528 27.788,301.595 27.613 C 301.644 27.487,301.495 27.309,301.246 27.195 C 300.901 27.038,300.838 27.040,300.938 27.207 C 301.036 27.371,301.006 27.370,300.801 27.204 C 300.434 26.906,295.926 26.987,295.896 27.292 C 295.884 27.406,295.866 27.575,295.854 27.667 C 295.842 27.766,295.103 27.833,294.018 27.833 C 292.219 27.833,291.729 27.996,292.176 28.443 C 292.266 28.532,291.989 28.574,291.497 28.545 C 290.709 28.500,290.667 28.519,290.667 28.915 C 290.667 29.300,290.606 29.333,289.917 29.333 C 289.287 29.333,289.167 29.385,289.167 29.655 C 289.167 29.862,289.033 29.996,288.792 30.030 C 288.526 30.068,288.430 30.180,288.463 30.417 C 288.509 30.750,288.509 30.750,288.248 30.417 C 288.006 30.109,287.682 30.250,287.669 30.669 C 287.668 30.716,287.498 30.831,287.292 30.925 C 287.085 31.019,286.935 31.187,286.958 31.298 C 286.982 31.413,286.822 31.500,286.583 31.500 C 286.253 31.500,286.167 31.584,286.167 31.905 C 286.167 32.198,286.063 32.325,285.792 32.363 C 285.509 32.403,285.391 32.561,285.314 33.000 C 285.257 33.321,285.201 33.454,285.189 33.297 C 285.174 33.112,285.076 33.045,284.912 33.108 C 284.725 33.180,284.705 33.262,284.837 33.421 C 284.961 33.571,284.963 33.670,284.841 33.745 C 284.745 33.804,284.667 33.993,284.667 34.165 C 284.667 34.361,284.528 34.497,284.292 34.530 C 283.979 34.574,283.902 34.714,283.826 35.368 C 283.742 36.103,283.503 36.673,283.497 36.153 C 283.495 35.959,283.470 35.957,283.353 36.140 C 283.235 36.328,283.146 36.328,282.814 36.140 C 282.595 36.017,282.392 35.905,282.362 35.890 C 282.333 35.876,282.288 35.726,282.263 35.557 C 282.238 35.388,282.132 35.241,282.026 35.229 C 281.920 35.218,281.746 35.199,281.639 35.188 C 281.532 35.176,281.493 35.118,281.553 35.058 C 281.764 34.847,281.075 34.510,280.417 34.503 C 279.932 34.497,279.818 34.452,279.999 34.338 C 280.613 33.949,279.778 33.707,277.708 33.675 C 277.276 33.668,277.167 33.598,277.167 33.324 C 277.167 32.988,277.104 32.983,273.542 33.033 C 270.453 33.076,269.917 33.120,269.917 33.333 C 269.917 33.471,269.729 33.621,269.500 33.668 C 269.228 33.723,269.065 33.882,269.030 34.126 C 268.983 34.458,268.825 34.571,268.475 34.525 C 268.415 34.517,268.356 35.566,268.343 36.855 C 268.320 39.117,268.451 39.819,268.852 39.572 C 268.933 39.521,269.000 39.672,269.000 39.907 C 269.000 40.245,269.082 40.333,269.397 40.333 C 269.654 40.333,269.825 40.451,269.881 40.666 C 269.929 40.849,270.107 41.050,270.276 41.113 C 270.445 41.176,270.681 41.364,270.801 41.531 C 270.927 41.705,271.227 41.833,271.509 41.833 C 271.889 41.833,272.000 41.909,272.000 42.167 C 272.000 42.350,272.087 42.500,272.194 42.500 C 272.545 42.500,272.187 42.711,271.797 42.734 C 271.546 42.749,271.425 42.854,271.440 43.045 C 271.478 43.518,268.401 43.475,268.250 43.000 C 268.192 42.817,267.999 42.667,267.822 42.667 C 267.590 42.667,267.500 42.551,267.500 42.250 C 267.500 41.944,267.411 41.833,267.167 41.833 C 266.850 41.833,266.833 41.722,266.833 39.583 C 266.833 37.444,266.850 37.333,267.167 37.333 C 267.473 37.333,267.500 37.222,267.500 35.977 C 267.500 34.739,267.537 34.588,267.924 34.228 C 268.158 34.012,268.336 33.741,268.321 33.626 C 268.195 32.659,268.345 32.034,268.682 32.122 C 268.969 32.197,269.024 32.143,268.997 31.815 C 268.890 30.543,268.996 30.024,269.375 29.970 C 269.687 29.926,269.759 29.797,269.801 29.208 L 269.852 28.500 271.676 28.500 C 273.186 28.500,273.500 28.543,273.500 28.750 C 273.500 28.887,273.579 29.000,273.677 29.000 C 273.774 29.000,273.806 29.077,273.747 29.171 C 273.689 29.265,273.704 29.331,273.779 29.318 C 274.320 29.224,276.046 29.362,275.854 29.484 C 275.556 29.673,275.761 30.000,276.177 30.000 C 276.464 30.000,276.500 30.122,276.500 31.083 C 276.500 32.056,276.534 32.167,276.833 32.167 C 277.017 32.167,277.176 32.242,277.188 32.333 C 277.199 32.425,277.218 32.594,277.229 32.708 C 277.282 33.240,281.667 33.031,281.667 32.497 C 281.667 32.275,281.779 32.167,282.008 32.167 C 282.321 32.167,282.345 32.080,282.300 31.125 C 282.262 30.332,282.190 30.083,282.000 30.083 C 281.790 30.083,281.743 29.660,281.704 27.458 C 281.659 24.907,281.668 24.833,282.000 24.833 C 282.329 24.833,282.341 24.747,282.323 22.597 L 282.304 20.361 281.027 20.366 C 280.261 20.369,279.701 20.447,279.628 20.560 C 279.537 20.701,279.504 20.700,279.503 20.557 C 279.501 20.444,279.356 20.402,279.153 20.455 C 278.914 20.518,278.832 20.642,278.888 20.856 C 278.960 21.131,278.864 21.167,278.048 21.167 C 277.210 21.167,277.136 21.196,277.215 21.500 C 277.284 21.765,277.220 21.833,276.901 21.833 C 276.635 21.833,276.496 21.932,276.487 22.125 C 276.479 22.299,276.440 22.333,276.390 22.208 C 276.228 21.808,275.833 21.987,275.836 22.458 C 275.839 23.027,276.069 23.413,276.315 23.262 C 276.435 23.187,276.500 23.325,276.500 23.657 L 276.500 24.167 274.208 24.144 C 272.948 24.131,272.081 24.089,272.281 24.050 C 272.501 24.008,272.667 23.834,272.698 23.615 C 272.727 23.414,272.844 23.241,272.958 23.229 C 273.073 23.218,273.250 23.199,273.351 23.188 C 273.453 23.176,273.495 23.060,273.445 22.929 C 273.392 22.792,273.524 22.580,273.760 22.425 C 274.040 22.242,274.167 22.005,274.167 21.663 C 274.167 21.390,274.242 21.157,274.333 21.146 C 274.425 21.134,274.594 21.116,274.708 21.104 C 274.823 21.093,274.926 20.990,274.938 20.875 C 274.949 20.760,274.968 20.592,274.979 20.500 C 274.991 20.408,275.150 20.333,275.333 20.333 C 275.580 20.333,275.667 20.222,275.667 19.907 C 275.667 19.663,275.739 19.525,275.835 19.584 C 276.181 19.798,276.476 19.218,276.457 18.357 L 276.439 17.500 269.731 17.500 L 263.023 17.500 262.970 17.125 C 262.913 16.721,262.161 16.573,261.833 16.901 M115.500 26.000 C 115.500 26.300,115.382 26.335,114.333 26.354 C 113.692 26.366,113.092 26.394,113.000 26.417 C 112.908 26.440,112.749 26.468,112.646 26.479 C 112.521 26.493,112.535 26.594,112.688 26.782 C 112.843 26.974,112.850 27.024,112.708 26.939 C 112.594 26.870,112.500 26.889,112.500 26.981 C 112.500 27.072,112.346 27.118,112.157 27.082 C 111.686 26.991,110.968 27.342,111.072 27.613 C 111.147 27.808,110.858 27.919,110.451 27.851 C 110.379 27.839,110.393 27.967,110.484 28.137 C 110.609 28.370,110.590 28.444,110.408 28.444 C 110.164 28.444,110.105 28.227,110.160 27.542 C 110.187 27.209,110.019 27.085,109.625 27.147 C 109.556 27.158,109.500 26.979,109.500 26.750 C 109.500 26.348,109.461 26.333,108.417 26.333 C 107.457 26.333,107.333 26.370,107.333 26.655 C 107.333 26.862,107.199 26.996,106.958 27.030 C 106.717 27.064,106.564 27.217,106.530 27.458 C 106.484 27.784,106.378 27.833,105.719 27.833 C 105.043 27.833,104.971 27.869,105.048 28.167 C 105.128 28.471,104.060 28.667,103.125 28.520 C 103.006 28.501,102.986 28.557,102.938 29.042 C 102.922 29.196,102.242 29.262,100.292 29.296 L 97.667 29.342 97.667 30.060 C 97.667 31.061,97.116 31.294,96.743 30.451 C 96.612 30.153,96.423 30.081,95.681 30.045 C 94.743 30.000,94.583 29.937,94.583 29.611 C 94.583 29.313,88.997 29.237,88.809 29.532 C 88.733 29.652,88.697 29.825,88.731 29.917 C 88.769 30.021,88.102 30.083,86.937 30.083 C 85.142 30.083,85.082 30.095,85.030 30.458 C 84.975 30.843,84.647 30.909,83.083 30.847 C 82.404 30.821,82.041 31.064,82.298 31.375 C 82.458 31.567,82.409 31.596,82.016 31.538 C 81.754 31.499,81.486 31.554,81.422 31.659 C 81.333 31.802,81.245 31.801,81.071 31.657 C 80.886 31.503,80.806 31.551,80.674 31.899 C 80.566 32.180,80.383 32.333,80.151 32.333 C 79.877 32.333,79.814 32.410,79.882 32.667 C 79.964 32.980,79.818 33.050,79.215 32.988 C 79.150 32.981,79.049 33.112,78.990 33.279 C 78.925 33.466,78.665 33.616,78.317 33.667 C 77.901 33.728,77.737 33.843,77.700 34.101 C 77.672 34.295,77.476 34.546,77.264 34.659 C 76.980 34.811,76.883 35.002,76.895 35.391 C 76.908 35.814,76.839 35.927,76.539 35.970 C 76.321 36.001,76.167 36.140,76.167 36.305 C 76.167 36.461,75.998 36.662,75.792 36.752 C 75.469 36.894,75.410 37.063,75.367 37.958 C 75.324 38.863,75.275 39.000,74.992 39.000 C 74.684 39.000,74.667 39.131,74.667 41.500 C 74.667 43.889,74.681 44.000,75.000 44.000 C 75.275 44.000,75.333 44.110,75.331 44.625 C 75.329 45.019,75.277 45.170,75.191 45.033 C 75.115 44.913,74.947 44.838,74.818 44.866 C 74.647 44.903,74.570 44.701,74.533 44.125 C 74.490 43.469,74.426 43.333,74.158 43.333 C 73.979 43.333,73.833 43.221,73.833 43.083 C 73.833 42.946,73.754 42.833,73.657 42.833 C 73.560 42.833,73.527 42.758,73.583 42.667 C 73.640 42.575,73.588 42.495,73.468 42.488 C 73.348 42.482,73.400 42.415,73.583 42.341 C 73.890 42.216,73.880 42.195,73.459 42.085 C 73.198 42.016,73.049 41.889,73.112 41.787 C 73.180 41.677,73.119 41.649,72.952 41.713 C 72.764 41.785,72.711 41.744,72.776 41.576 C 72.827 41.443,72.947 41.384,73.043 41.443 C 73.146 41.507,73.169 41.471,73.098 41.356 C 73.031 41.249,72.913 41.201,72.835 41.249 C 72.651 41.363,72.137 40.849,72.251 40.665 C 72.299 40.587,72.251 40.469,72.144 40.402 C 72.022 40.327,71.993 40.354,72.067 40.474 C 72.133 40.580,72.115 40.667,72.028 40.667 C 71.863 40.667,71.594 40.176,71.640 39.958 C 71.665 39.840,71.405 39.768,71.120 39.815 C 71.049 39.827,70.942 39.704,70.883 39.543 C 70.730 39.130,70.498 39.005,69.875 39.003 C 69.409 39.000,69.333 38.942,69.333 38.583 C 69.333 38.354,69.277 38.176,69.208 38.186 C 68.843 38.244,68.667 38.133,68.667 37.844 C 68.667 37.621,68.526 37.501,68.208 37.453 C 67.925 37.410,68.053 37.374,68.542 37.358 C 69.214 37.337,69.333 37.283,69.333 37.000 C 69.333 36.716,69.444 36.667,70.083 36.667 C 70.714 36.667,70.833 36.615,70.833 36.345 C 70.833 36.167,70.984 35.975,71.169 35.916 C 71.354 35.857,71.462 35.740,71.409 35.655 C 71.357 35.570,71.393 35.500,71.490 35.500 C 71.587 35.500,71.667 35.383,71.667 35.240 C 71.667 35.077,71.589 35.027,71.458 35.105 C 71.307 35.196,71.310 35.156,71.470 34.959 C 71.592 34.809,71.667 34.476,71.637 34.218 L 71.583 33.750 69.417 33.750 C 67.297 33.750,67.249 33.758,67.197 34.125 C 67.145 34.490,67.090 34.500,65.156 34.500 C 63.350 34.500,63.151 34.530,62.961 34.833 C 62.781 35.123,62.573 35.167,61.390 35.167 C 60.456 35.167,60.001 35.232,59.944 35.375 C 59.878 35.538,59.857 35.536,59.846 35.369 C 59.836 35.204,59.754 35.198,59.487 35.340 C 59.289 35.446,59.180 35.627,59.232 35.763 C 59.302 35.946,59.157 36.000,58.599 36.000 C 57.868 36.000,57.557 36.208,57.603 36.667 C 57.617 36.804,57.637 37.010,57.647 37.125 C 57.658 37.240,57.817 37.333,58.000 37.333 C 58.244 37.333,58.333 37.444,58.333 37.750 C 58.333 38.047,58.424 38.167,58.647 38.167 C 58.821 38.167,59.000 38.316,59.048 38.500 C 59.099 38.695,59.276 38.833,59.473 38.833 C 59.696 38.833,59.828 38.960,59.863 39.208 C 59.893 39.415,60.029 39.583,60.167 39.583 C 60.304 39.583,60.441 39.752,60.470 39.958 C 60.508 40.224,60.636 40.333,60.910 40.333 C 61.184 40.333,61.328 40.455,61.402 40.750 C 61.459 40.979,61.617 41.167,61.753 41.167 C 61.972 41.167,62.082 41.550,62.019 42.098 C 62.007 42.197,62.179 42.362,62.401 42.463 C 62.623 42.564,62.853 42.801,62.913 42.990 C 62.973 43.179,63.130 43.333,63.261 43.333 C 63.403 43.333,63.500 43.498,63.500 43.736 C 63.500 43.958,63.594 44.177,63.708 44.223 C 63.871 44.288,63.869 44.310,63.702 44.320 C 63.526 44.331,63.526 44.376,63.702 44.566 C 63.820 44.694,63.973 44.764,64.042 44.723 C 64.110 44.681,64.167 44.839,64.167 45.073 C 64.167 45.308,64.223 45.491,64.292 45.480 C 64.914 45.382,65.018 45.506,64.967 46.292 C 64.940 46.727,64.860 47.065,64.792 47.042 C 64.723 47.019,64.217 47.000,63.667 47.000 C 62.785 47.000,62.667 46.961,62.667 46.674 C 62.667 46.401,62.567 46.355,62.063 46.395 C 61.598 46.432,61.515 46.401,61.702 46.263 C 62.115 45.959,61.846 45.667,61.153 45.667 C 60.568 45.667,60.500 45.624,60.500 45.250 C 60.500 44.917,60.417 44.833,60.083 44.833 C 59.833 44.833,59.667 44.738,59.667 44.595 C 59.667 44.463,59.517 44.308,59.333 44.250 C 59.150 44.192,59.000 44.008,59.000 43.842 C 59.000 43.663,58.793 43.455,58.489 43.329 C 58.117 43.175,58.038 43.079,58.197 42.978 C 58.318 42.901,58.379 42.832,58.333 42.823 C 57.507 42.671,57.494 42.663,57.430 42.224 C 57.405 42.055,57.305 41.917,57.206 41.917 C 56.977 41.917,56.750 41.689,56.750 41.460 C 56.750 41.362,56.612 41.262,56.443 41.237 C 56.030 41.176,56.021 41.161,55.974 40.452 C 55.936 39.891,55.826 39.755,55.458 39.814 C 55.390 39.824,55.324 39.458,55.313 39.000 C 55.282 37.767,55.281 37.763,54.875 37.585 C 54.333 37.348,54.363 36.674,54.917 36.646 C 55.146 36.634,55.408 36.606,55.500 36.583 C 55.592 36.560,55.746 36.532,55.843 36.521 C 55.940 36.509,55.979 36.433,55.928 36.352 C 55.878 36.271,55.949 36.112,56.085 35.998 C 56.222 35.885,56.333 35.845,56.333 35.908 C 56.333 35.972,56.449 35.908,56.591 35.766 C 56.786 35.571,56.836 35.217,56.799 34.296 L 56.750 33.083 55.292 33.035 C 53.919 32.990,53.833 33.007,53.833 33.327 C 53.833 33.514,53.740 33.673,53.625 33.682 C 53.510 33.690,53.121 33.718,52.759 33.745 C 52.344 33.776,52.001 33.918,51.828 34.131 C 51.672 34.324,51.311 34.490,50.986 34.517 C 50.221 34.581,50.114 34.653,50.353 34.941 C 50.465 35.075,50.487 35.172,50.403 35.156 C 50.319 35.140,50.212 35.143,50.167 35.163 C 50.121 35.182,49.821 35.210,49.500 35.224 C 49.069 35.243,48.874 35.348,48.752 35.625 C 48.619 35.930,48.454 36.000,47.877 36.000 C 47.278 36.000,47.167 36.052,47.167 36.333 C 47.167 36.517,47.073 36.674,46.958 36.682 C 46.844 36.690,46.525 36.709,46.250 36.724 C 45.535 36.761,45.357 38.833,46.069 38.833 C 46.365 38.833,46.491 38.936,46.530 39.208 C 46.559 39.415,46.696 39.583,46.833 39.583 C 47.006 39.583,47.109 39.815,47.167 40.333 C 47.236 40.959,47.305 41.078,47.583 41.051 C 47.883 41.022,47.915 41.113,47.898 41.968 C 47.876 43.125,47.945 43.333,48.351 43.333 C 48.666 43.333,48.772 43.934,48.670 45.148 C 48.643 45.477,48.698 45.531,48.985 45.456 C 49.300 45.373,49.335 45.439,49.350 46.141 C 49.383 47.689,49.398 47.747,49.792 47.803 C 50.165 47.856,50.167 47.873,50.167 50.840 C 50.167 53.264,50.125 53.807,49.943 53.737 C 49.671 53.633,49.263 54.085,49.412 54.326 C 49.472 54.423,49.383 54.500,49.210 54.500 C 49.039 54.500,48.818 54.582,48.719 54.681 C 48.588 54.812,48.506 54.812,48.426 54.681 C 48.364 54.582,48.056 54.500,47.740 54.500 C 47.425 54.500,47.157 54.425,47.146 54.333 C 47.134 54.242,47.116 54.073,47.104 53.958 C 47.093 53.844,46.915 53.726,46.708 53.697 C 46.467 53.663,46.333 53.529,46.333 53.322 C 46.333 53.114,46.218 53.000,46.010 53.000 C 45.748 53.000,45.676 52.864,45.635 52.292 C 45.592 51.703,45.520 51.574,45.208 51.530 C 44.884 51.484,44.833 51.377,44.833 50.738 C 44.833 50.117,44.782 50.000,44.507 50.000 C 44.198 50.000,44.179 49.850,44.132 47.042 C 44.067 43.126,44.102 42.722,44.509 42.616 C 44.788 42.543,44.833 42.381,44.833 41.459 C 44.833 40.452,44.861 40.374,45.292 40.173 C 45.720 39.973,45.728 39.951,45.417 39.831 C 45.119 39.716,45.114 39.690,45.364 39.587 C 45.519 39.524,45.605 39.367,45.556 39.238 C 45.461 38.991,41.321 38.889,41.356 39.135 C 41.430 39.648,41.308 39.667,37.917 39.667 C 34.611 39.667,34.500 39.656,34.500 39.333 C 34.500 39.026,34.389 39.000,33.083 39.000 L 31.667 39.000 31.667 41.167 C 31.667 43.222,31.684 43.333,32.000 43.333 C 32.222 43.333,32.333 43.444,32.333 43.667 C 32.333 43.975,32.444 44.000,33.833 44.000 L 35.333 44.000 35.333 44.604 C 35.333 45.090,35.290 45.171,35.109 45.022 C 34.635 44.628,34.508 45.556,34.519 49.332 C 34.525 51.349,34.596 53.000,34.676 53.000 C 34.757 53.000,34.782 53.106,34.733 53.235 C 34.679 53.376,34.780 53.514,34.988 53.580 C 35.213 53.651,35.333 53.831,35.333 54.095 C 35.333 54.389,35.425 54.500,35.667 54.500 C 35.889 54.500,36.000 54.611,36.000 54.833 C 36.000 55.017,36.068 55.167,36.151 55.167 C 36.234 55.167,36.268 55.298,36.226 55.458 C 36.177 55.647,36.286 55.811,36.534 55.923 C 36.744 56.018,36.898 56.187,36.875 56.298 C 36.852 56.409,36.927 56.509,37.042 56.519 C 37.156 56.530,37.325 56.556,37.417 56.577 C 37.508 56.598,37.752 56.627,37.958 56.641 C 38.214 56.659,38.333 56.773,38.333 57.000 C 38.333 57.277,38.444 57.333,38.988 57.333 C 39.541 57.333,39.652 57.392,39.697 57.708 C 39.745 58.049,39.853 58.088,40.875 58.133 C 41.856 58.176,42.000 58.223,42.000 58.502 C 42.000 58.796,42.153 58.826,43.875 58.870 C 45.009 58.898,45.738 58.983,45.719 59.083 C 45.639 59.517,46.498 59.636,49.705 59.636 L 53.000 59.636 53.000 59.235 C 53.000 58.840,53.026 58.833,54.500 58.833 C 55.889 58.833,56.000 58.809,56.000 58.500 C 56.000 58.256,56.111 58.167,56.417 58.167 C 56.750 58.167,56.833 58.083,56.833 57.750 C 56.833 57.444,56.922 57.333,57.167 57.333 C 57.389 57.333,57.500 57.222,57.500 57.000 C 57.500 56.756,57.611 56.667,57.917 56.667 C 58.247 56.667,58.333 56.583,58.333 56.261 C 58.333 56.000,58.454 55.818,58.671 55.749 C 58.857 55.690,58.998 55.553,58.985 55.446 C 58.971 55.338,58.969 54.069,58.980 52.625 L 59.000 50.000 59.417 50.000 C 59.722 50.000,59.833 50.089,59.833 50.333 C 59.833 50.556,59.944 50.667,60.167 50.667 C 60.411 50.667,60.500 50.778,60.500 51.083 C 60.500 51.466,60.561 51.500,61.250 51.500 C 61.889 51.500,62.000 51.549,62.000 51.833 C 62.000 52.117,62.111 52.167,62.750 52.167 C 63.386 52.167,63.500 52.217,63.500 52.497 C 63.500 52.825,64.154 53.130,64.457 52.943 C 64.635 52.833,65.076 53.095,65.104 53.327 C 65.151 53.718,65.179 53.739,65.333 53.500 C 65.441 53.333,65.496 53.319,65.497 53.458 C 65.499 53.617,66.186 53.666,68.375 53.664 C 71.234 53.662,71.794 53.572,71.629 53.142 C 71.563 52.971,71.729 52.921,72.313 52.936 C 72.737 52.947,73.271 52.849,73.500 52.718 C 73.913 52.483,73.914 52.481,73.525 52.562 C 73.041 52.663,73.141 52.554,73.862 52.194 C 74.320 51.965,74.431 51.801,74.500 51.250 C 74.572 50.674,74.634 50.590,74.958 50.635 C 75.332 50.687,75.333 50.678,75.333 48.359 L 75.333 46.031 75.749 46.224 C 75.977 46.330,76.165 46.548,76.165 46.708 C 76.166 46.888,76.294 47.000,76.500 47.000 C 76.744 47.000,76.833 47.111,76.833 47.417 C 76.833 47.750,76.917 47.833,77.250 47.833 C 77.556 47.833,77.667 47.922,77.667 48.167 C 77.667 48.389,77.778 48.500,78.000 48.500 C 78.244 48.500,78.333 48.611,78.333 48.917 C 78.333 49.214,78.424 49.333,78.647 49.333 C 78.821 49.333,79.000 49.482,79.048 49.667 C 79.118 49.932,79.276 50.000,79.818 50.000 C 80.382 50.000,80.500 50.056,80.500 50.324 C 80.500 50.593,80.636 50.657,81.292 50.699 C 81.772 50.730,82.092 50.832,82.104 50.958 C 82.116 51.073,82.134 51.242,82.146 51.333 C 82.157 51.425,82.598 51.505,83.125 51.512 C 83.759 51.519,83.972 51.567,83.754 51.652 C 82.787 52.030,84.218 52.176,88.748 52.161 C 93.308 52.147,93.439 52.131,93.349 51.613 C 93.336 51.537,93.399 51.521,93.489 51.576 C 93.579 51.632,93.605 51.800,93.548 51.949 C 93.478 52.131,93.508 52.181,93.638 52.101 C 93.746 52.035,93.833 51.848,93.833 51.687 C 93.833 51.456,93.953 51.404,94.403 51.439 C 94.773 51.468,95.050 51.388,95.195 51.210 C 95.384 50.976,95.380 50.958,95.167 51.083 C 94.951 51.210,94.948 51.192,95.145 50.949 C 95.271 50.794,95.552 50.667,95.770 50.667 C 96.056 50.667,96.167 50.573,96.167 50.333 C 96.167 50.018,96.482 49.904,97.125 49.988 C 97.322 50.013,97.362 49.920,97.401 49.334 C 97.410 49.196,97.530 49.076,97.667 49.067 C 98.228 49.030,98.283 48.978,98.298 48.475 C 98.312 47.962,98.600 47.606,98.867 47.771 C 98.940 47.816,99.000 47.524,99.000 47.121 C 99.000 46.515,99.070 46.352,99.409 46.171 C 99.633 46.051,99.812 45.907,99.806 45.851 C 99.672 44.701,99.868 43.333,100.167 43.333 C 100.487 43.333,100.500 43.222,100.500 40.417 C 100.500 37.611,100.487 37.500,100.167 37.500 C 99.863 37.500,99.833 37.389,99.833 36.266 C 99.833 35.076,99.847 35.034,100.208 35.101 C 100.415 35.139,100.486 35.125,100.368 35.069 C 99.773 34.789,100.565 34.500,101.895 34.513 C 102.640 34.520,103.160 34.563,103.051 34.607 C 102.942 34.652,102.894 34.798,102.945 34.932 C 103.011 35.102,103.100 35.125,103.242 35.007 C 103.479 34.810,103.486 34.839,103.526 36.292 C 103.553 37.264,103.581 37.333,103.944 37.333 L 104.333 37.333 104.333 40.398 C 104.333 43.208,104.309 43.461,104.043 43.440 C 103.884 43.427,103.679 43.585,103.587 43.792 C 103.496 43.998,103.294 44.167,103.139 44.167 C 102.974 44.167,102.834 44.321,102.803 44.539 C 102.759 44.848,102.650 44.908,102.167 44.892 C 101.846 44.882,101.538 44.945,101.482 45.033 C 101.298 45.323,101.306 47.666,101.491 47.688 C 101.588 47.699,101.760 47.718,101.875 47.729 C 101.997 47.741,102.105 48.045,102.135 48.458 C 102.175 49.021,102.250 49.167,102.498 49.167 C 102.695 49.167,102.830 49.305,102.863 49.542 C 102.906 49.843,103.040 49.927,103.542 49.968 C 104.114 50.016,104.250 49.916,104.125 49.542 C 104.102 49.473,104.683 49.361,105.417 49.293 C 106.150 49.225,106.844 49.156,106.958 49.140 C 107.073 49.124,107.167 48.977,107.167 48.813 C 107.167 48.561,107.341 48.508,108.292 48.466 C 109.293 48.422,109.416 48.380,109.408 48.083 C 109.400 47.772,109.499 47.752,110.907 47.776 C 111.909 47.793,112.554 47.725,112.832 47.574 C 113.202 47.373,113.212 47.346,112.917 47.337 C 112.640 47.330,112.626 47.301,112.833 47.167 C 112.971 47.078,113.927 47.004,114.958 47.003 C 116.721 47.000,116.833 46.980,116.833 46.667 C 116.833 46.348,116.944 46.333,119.417 46.333 L 122.000 46.333 122.000 44.083 L 122.000 41.833 119.790 41.833 C 117.747 41.833,117.564 41.808,117.368 41.494 C 117.252 41.307,117.065 41.166,116.953 41.180 C 116.841 41.195,116.286 41.197,115.718 41.186 L 114.686 41.167 114.635 40.458 C 114.592 39.869,114.520 39.741,114.208 39.697 C 113.884 39.651,113.833 39.544,113.833 38.905 C 113.833 38.278,113.783 38.167,113.500 38.167 C 113.261 38.167,113.161 38.049,113.146 37.750 C 113.134 37.521,113.106 37.258,113.083 37.167 C 113.060 37.075,113.032 36.921,113.021 36.823 C 113.009 36.726,112.930 36.690,112.845 36.743 C 112.558 36.920,112.476 36.502,112.473 34.838 C 112.470 33.180,112.555 32.745,112.845 32.924 C 112.930 32.977,113.009 32.940,113.021 32.843 C 113.032 32.746,113.051 32.573,113.063 32.458 C 113.074 32.344,113.252 32.226,113.458 32.197 C 113.691 32.164,113.833 32.028,113.833 31.840 C 113.833 31.655,113.996 31.495,114.250 31.432 C 114.519 31.364,114.667 31.210,114.667 30.997 C 114.667 30.702,114.781 30.667,115.738 30.667 C 116.717 30.667,116.816 30.634,116.882 30.292 C 116.944 29.970,116.958 29.982,116.977 30.375 C 116.996 30.759,116.932 30.833,116.583 30.833 C 116.220 30.833,116.167 30.906,116.167 31.407 C 116.167 31.722,116.099 32.022,116.016 32.074 C 115.932 32.125,115.900 31.998,115.945 31.792 C 116.019 31.445,116.007 31.439,115.787 31.707 C 115.607 31.926,115.541 32.627,115.516 34.577 C 115.479 37.448,115.388 37.227,116.667 37.370 C 116.984 37.406,117.078 37.508,117.063 37.800 L 117.042 38.183 119.732 38.152 C 121.903 38.127,122.468 38.071,122.661 37.866 C 122.871 37.641,122.853 37.623,122.509 37.713 C 122.210 37.791,122.164 37.769,122.315 37.619 C 122.423 37.511,123.067 37.395,123.746 37.360 C 124.856 37.304,124.987 37.262,125.032 36.943 C 125.077 36.635,125.177 36.596,125.792 36.640 C 126.402 36.685,126.500 36.647,126.500 36.365 C 126.500 36.127,126.649 36.009,127.042 35.934 C 128.243 35.704,128.744 34.848,128.794 32.940 C 128.853 30.710,128.748 30.106,128.323 30.218 C 128.058 30.287,128.000 30.215,128.000 29.818 C 128.000 29.444,127.924 29.333,127.667 29.333 C 127.483 29.333,127.324 29.258,127.313 29.167 C 127.301 29.075,127.282 28.906,127.271 28.792 C 127.259 28.677,127.156 28.574,127.042 28.563 C 126.927 28.551,126.758 28.532,126.667 28.521 C 126.575 28.509,126.500 28.350,126.500 28.167 C 126.500 27.926,126.389 27.833,126.099 27.833 C 125.789 27.833,125.716 27.762,125.780 27.521 C 125.841 27.287,125.730 27.163,125.335 27.025 C 125.045 26.925,124.856 26.765,124.914 26.671 C 124.972 26.577,124.940 26.491,124.843 26.479 C 124.746 26.468,124.592 26.440,124.500 26.417 C 124.408 26.394,123.946 26.366,123.472 26.354 C 122.999 26.343,122.660 26.284,122.721 26.224 C 123.159 25.785,122.361 25.667,118.980 25.667 C 115.611 25.667,115.500 25.677,115.500 26.000 M202.435 29.322 C 204.071 29.190,205.311 29.335,205.418 29.671 C 205.477 29.857,205.613 29.998,205.721 29.985 C 206.778 29.854,207.631 30.017,207.548 30.333 C 207.481 30.589,207.543 30.667,207.814 30.667 C 208.120 30.667,208.165 30.761,208.155 31.375 C 208.146 31.890,208.108 31.993,208.014 31.754 C 207.849 31.331,207.500 31.880,207.500 32.563 C 207.500 32.935,207.423 32.986,206.792 33.032 C 206.212 33.074,206.083 33.144,206.083 33.417 C 206.083 33.660,205.970 33.751,205.666 33.754 C 204.993 33.760,204.466 34.004,204.566 34.265 C 204.651 34.486,204.066 34.605,203.362 34.509 C 203.240 34.493,203.100 34.634,203.051 34.823 C 203.002 35.012,202.876 35.172,202.772 35.178 C 202.668 35.184,202.208 35.203,201.750 35.220 C 201.224 35.239,200.909 35.327,200.896 35.458 C 200.884 35.573,200.866 35.742,200.854 35.833 C 200.841 35.937,199.819 36.000,198.167 36.000 C 196.514 36.000,195.492 35.937,195.479 35.833 C 195.468 35.742,195.449 35.573,195.438 35.458 C 195.424 35.322,195.056 35.233,194.375 35.200 C 193.470 35.157,193.333 35.108,193.333 34.825 C 193.333 34.589,193.219 34.500,192.917 34.500 C 192.611 34.500,192.500 34.411,192.500 34.167 C 192.500 33.983,192.424 33.833,192.332 33.833 C 192.231 33.833,192.248 33.683,192.374 33.458 C 192.626 33.007,192.854 32.827,193.034 32.938 C 193.107 32.983,193.176 32.940,193.188 32.843 C 193.199 32.746,193.218 32.573,193.229 32.458 C 193.241 32.344,193.419 32.226,193.625 32.197 C 193.866 32.163,194.000 32.029,194.000 31.822 C 194.000 31.590,194.116 31.500,194.417 31.500 C 194.750 31.500,194.833 31.417,194.833 31.083 C 194.833 30.734,194.912 30.667,195.320 30.667 C 195.974 30.667,196.333 30.513,196.333 30.232 C 196.333 30.073,196.556 29.994,197.042 29.982 C 198.368 29.949,198.418 29.934,198.384 29.583 C 198.353 29.268,198.440 29.252,200.009 29.289 C 201.233 29.318,201.667 29.274,201.669 29.122 C 201.671 28.972,201.710 28.976,201.813 29.139 C 201.890 29.261,202.170 29.343,202.435 29.322 M160.833 32.417 C 160.977 32.589,160.983 32.667,160.854 32.667 C 160.751 32.667,160.667 32.892,160.667 33.167 C 160.667 33.647,160.410 33.795,159.774 33.681 C 159.520 33.635,159.149 34.047,159.237 34.277 C 159.298 34.435,159.164 34.500,158.775 34.500 C 158.405 34.500,158.114 34.629,157.882 34.897 C 157.615 35.204,157.409 35.279,156.977 35.228 C 156.205 35.137,155.429 35.463,155.684 35.771 C 155.843 35.963,155.549 36.000,153.865 36.000 C 151.997 36.000,151.848 35.976,151.749 35.664 C 151.691 35.480,151.573 35.372,151.488 35.424 C 151.403 35.477,151.333 35.440,151.333 35.343 C 151.333 35.246,151.108 35.167,150.833 35.167 C 150.238 35.167,150.140 34.701,150.667 34.372 C 150.850 34.258,151.000 34.052,151.000 33.915 C 151.000 33.690,151.489 33.574,152.112 33.651 C 152.220 33.665,152.355 33.528,152.412 33.347 C 152.490 33.101,152.693 33.006,153.217 32.968 C 153.797 32.925,153.926 32.853,153.970 32.542 C 154.039 32.057,160.438 31.940,160.833 32.417 M78.500 33.250 C 78.330 33.455,78.341 33.500,78.563 33.500 C 78.712 33.500,78.833 33.387,78.833 33.250 C 78.833 33.112,78.805 33.000,78.770 33.000 C 78.736 33.000,78.614 33.112,78.500 33.250 M300.292 35.992 C 300.886 35.999,301.000 36.053,301.000 36.333 C 301.000 36.632,301.111 36.667,302.083 36.667 C 303.056 36.667,303.167 36.701,303.167 37.000 C 303.167 37.183,303.223 37.324,303.292 37.314 C 303.730 37.244,304.000 37.372,304.000 37.649 C 304.000 37.822,304.122 38.011,304.270 38.068 C 304.482 38.149,304.520 38.094,304.446 37.812 C 304.393 37.609,304.415 37.517,304.495 37.601 C 304.880 38.002,304.750 39.667,304.333 39.667 C 304.111 39.667,304.000 39.778,304.000 40.000 C 304.000 40.183,303.944 40.341,303.875 40.351 C 303.806 40.361,303.525 40.389,303.250 40.413 C 302.975 40.437,302.694 40.466,302.625 40.478 C 302.556 40.490,302.500 40.650,302.500 40.833 C 302.500 41.117,302.389 41.167,301.750 41.167 C 301.111 41.167,301.000 41.216,301.000 41.500 C 301.000 41.778,300.883 41.836,300.292 41.850 C 298.053 41.903,298.086 41.896,298.030 42.292 C 297.952 42.844,294.167 42.885,294.167 42.333 C 294.167 41.969,293.745 41.874,293.610 42.208 C 293.562 42.328,293.521 42.288,293.513 42.112 C 293.502 41.863,293.372 41.813,292.792 41.836 C 291.656 41.881,291.103 41.842,291.221 41.724 C 291.452 41.492,290.932 41.167,290.331 41.167 C 289.844 41.167,289.709 41.104,289.727 40.885 C 289.740 40.730,289.563 40.505,289.333 40.385 C 289.104 40.265,288.935 40.092,288.958 40.000 C 288.996 39.848,288.772 39.764,288.458 39.814 C 288.390 39.824,288.334 39.665,288.336 39.458 C 288.338 39.154,288.369 39.130,288.503 39.333 C 288.723 39.669,288.994 39.282,288.997 38.625 C 289.000 38.216,289.061 38.167,289.563 38.167 C 289.890 38.167,290.222 38.049,290.355 37.885 C 290.552 37.641,290.549 37.623,290.333 37.750 C 290.118 37.877,290.115 37.859,290.312 37.615 C 290.464 37.428,290.786 37.333,291.270 37.333 C 291.889 37.333,292.000 37.283,292.000 37.000 C 292.000 36.716,292.111 36.667,292.750 36.667 C 293.382 36.667,293.500 36.616,293.500 36.342 C 293.500 35.951,293.993 35.900,297.333 35.951 C 298.571 35.969,299.902 35.988,300.292 35.992 M93.197 37.708 C 93.245 38.045,93.356 38.088,94.292 38.133 C 95.197 38.176,95.333 38.225,95.333 38.508 C 95.333 38.748,95.454 38.838,95.792 38.850 C 96.172 38.864,96.193 38.885,95.917 38.975 C 95.733 39.035,95.559 39.224,95.530 39.396 C 95.415 40.064,95.164 40.518,94.975 40.401 C 94.855 40.327,94.827 40.355,94.901 40.474 C 94.966 40.580,94.940 40.667,94.843 40.667 C 94.746 40.667,94.667 40.779,94.667 40.917 C 94.667 41.056,94.519 41.167,94.333 41.167 C 94.111 41.167,94.000 41.278,94.000 41.500 C 94.000 41.744,93.889 41.833,93.583 41.833 C 93.250 41.833,93.167 41.917,93.167 42.250 C 93.167 42.633,93.106 42.667,92.417 42.667 C 91.778 42.667,91.667 42.716,91.667 43.000 C 91.667 43.249,91.556 43.333,91.227 43.333 C 90.976 43.333,90.627 43.507,90.410 43.741 C 90.107 44.068,89.839 44.159,89.058 44.200 C 88.325 44.237,88.083 44.312,88.083 44.500 C 88.083 44.709,87.630 44.764,85.333 44.833 C 82.194 44.928,82.048 44.913,81.910 44.478 C 81.854 44.302,81.720 44.169,81.612 44.182 C 80.665 44.299,80.500 44.187,80.500 43.428 C 80.500 42.789,80.551 42.683,80.875 42.637 C 81.116 42.602,81.269 42.449,81.303 42.208 C 81.337 41.970,81.472 41.833,81.673 41.833 C 81.891 41.833,81.959 41.753,81.890 41.573 C 81.823 41.400,81.908 41.283,82.147 41.220 C 82.343 41.169,82.548 40.948,82.603 40.730 C 82.686 40.399,82.808 40.333,83.340 40.333 C 83.824 40.333,84.002 40.256,84.080 40.011 C 84.136 39.833,84.348 39.664,84.550 39.636 C 84.783 39.602,84.936 39.447,84.970 39.208 C 85.014 38.901,85.129 38.833,85.605 38.833 C 85.946 38.833,86.144 38.765,86.085 38.669 C 86.026 38.574,86.093 38.546,86.241 38.603 C 86.409 38.667,86.500 38.608,86.500 38.434 C 86.500 38.178,87.749 38.048,89.129 38.161 C 89.356 38.179,89.490 38.109,89.462 37.984 C 89.374 37.586,90.227 37.338,91.697 37.336 C 93.071 37.333,93.146 37.352,93.197 37.708 M89.590 37.822 C 89.429 38.083,89.736 38.147,89.965 37.899 C 90.141 37.708,90.136 37.667,89.933 37.667 C 89.797 37.667,89.643 37.736,89.590 37.822 M337.333 56.230 C 337.333 56.264,337.446 56.386,337.583 56.500 C 337.788 56.670,337.833 56.659,337.833 56.437 C 337.833 56.288,337.721 56.167,337.583 56.167 C 337.446 56.167,337.333 56.195,337.333 56.230 " stroke="none" fill="#ac1c1c" fill-rule="evenodd"></path><path id="path1" d="M165.667 13.228 C 165.667 13.364,165.535 13.510,165.375 13.552 C 165.129 13.616,165.126 13.631,165.355 13.647 C 165.706 13.672,166.084 13.238,165.841 13.088 C 165.745 13.029,165.667 13.092,165.667 13.228 M154.292 16.448 C 154.131 16.490,154.000 16.594,154.000 16.679 C 154.000 16.914,154.268 16.863,154.500 16.583 C 154.614 16.446,154.680 16.342,154.645 16.353 C 154.611 16.363,154.452 16.406,154.292 16.448 M170.525 16.992 C 170.597 17.207,170.825 17.245,170.846 17.046 C 170.853 16.979,170.768 16.895,170.658 16.858 C 170.548 16.822,170.488 16.882,170.525 16.992 M189.120 26.263 C 188.896 26.562,188.882 26.637,189.065 26.567 C 189.198 26.516,189.353 26.357,189.408 26.213 C 189.564 25.807,189.445 25.828,189.120 26.263 M78.833 33.210 C 78.833 33.356,78.702 33.510,78.542 33.552 C 78.268 33.623,78.269 33.629,78.547 33.647 C 78.848 33.667,79.127 33.239,78.937 33.048 C 78.880 32.991,78.833 33.064,78.833 33.210 M89.512 37.735 C 89.363 37.915,89.364 37.999,89.518 38.094 C 89.645 38.173,89.675 38.148,89.598 38.024 C 89.526 37.908,89.632 37.769,89.864 37.676 C 90.118 37.574,90.157 37.518,89.979 37.511 C 89.830 37.505,89.620 37.606,89.512 37.735 M73.459 42.444 C 73.575 42.490,73.626 42.597,73.575 42.681 C 73.523 42.765,73.560 42.833,73.657 42.833 C 73.754 42.833,73.833 42.721,73.833 42.583 C 73.833 42.446,73.702 42.339,73.542 42.346 C 73.366 42.354,73.333 42.393,73.459 42.444 M162.358 43.658 C 162.430 43.873,162.659 43.912,162.679 43.712 C 162.686 43.646,162.602 43.562,162.492 43.525 C 162.382 43.488,162.322 43.548,162.358 43.658 M195.757 43.655 C 195.643 43.839,195.906 44.038,196.060 43.884 C 196.219 43.726,196.189 43.500,196.010 43.500 C 195.924 43.500,195.810 43.570,195.757 43.655 M337.531 56.103 C 337.686 56.149,337.851 56.314,337.897 56.469 C 337.958 56.673,337.972 56.659,337.947 56.419 C 337.927 56.224,337.776 56.073,337.581 56.053 C 337.341 56.028,337.327 56.042,337.531 56.103 M339.487 57.458 C 339.480 57.527,339.449 57.715,339.419 57.875 C 339.388 58.035,339.422 58.167,339.494 58.167 C 339.566 58.167,339.625 57.979,339.625 57.750 C 339.625 57.375,339.519 57.150,339.487 57.458 " stroke="none" fill="#b01c1c" fill-rule="evenodd"></path></g></svg>